<svg xmlns="http://www.w3.org/2000/svg" viewBox="0 0 750 500"><g id="freepik--Floor--inject-159"><path d="M725.41,460.93c0,.15-156.9.27-350.39.27s-350.43-.12-350.43-.27,156.86-.26,350.43-.26S725.41,460.79,725.41,460.93Z" style="fill:#263238"></path></g><g id="freepik--Keys--inject-159"><path d="M288.62,49a13.07,13.07,0,0,0,.69,8,1.87,1.87,0,0,0,2.54.78,1.89,1.89,0,0,0,.92-1.1,2.14,2.14,0,0,0-.14-1.43l-.15-.38c.06.15.12.3.17.45a10.87,10.87,0,0,1-.63-2.75c0,.16,0,.32.05.48a10.67,10.67,0,0,1,.1-2.82l-.09.5.12-.6a2,2,0,0,0-.13-1.43,1.88,1.88,0,0,0-3.45.32Z" style="fill:#e0e0e0"></path><path d="M288.62,49s0-.17.11-.46a1.83,1.83,0,0,1,1-.86,2.26,2.26,0,0,1,1-.11,1.87,1.87,0,0,1,1.08.51,2,2,0,0,1,.62,1.22,5,5,0,0,1-.16,1.45l-.43-.08.08-.5.44.08a11.37,11.37,0,0,0-.08,2.76l-.49,0c0-.15,0-.32-.05-.49l.5,0a10.52,10.52,0,0,0,.63,2.68l-.49.18-.17-.45.49-.18.14.36a2.42,2.42,0,0,1,.16,1.57,2.18,2.18,0,0,1-.94,1.23,2.16,2.16,0,0,1-2.72-.42,1.63,1.63,0,0,1-.34-.61c-.08-.2-.15-.39-.21-.58a10.23,10.23,0,0,1-.33-1.13,13.11,13.11,0,0,1-.33-2.08,12,12,0,0,1,.16-3,3.86,3.86,0,0,1,.3-1.07,22.44,22.44,0,0,0-.09,4.07,11.27,11.27,0,0,0,.38,2,9.72,9.72,0,0,0,.34,1.09,3.27,3.27,0,0,0,.48,1,1.67,1.67,0,0,0,1,.53,1.54,1.54,0,0,0,1.11-.21,1.6,1.6,0,0,0,.71-.93,1.86,1.86,0,0,0-.13-1.24l-.15-.37.49-.19c.06.16.11.31.17.45l-.49.18a11.16,11.16,0,0,1-.64-2.81l.5-.05c0,.16,0,.33,0,.48l-.49,0a10.91,10.91,0,0,1,.13-2.89l.44.08-.09.49-.43-.07a4.53,4.53,0,0,0,.19-1.33,1.57,1.57,0,0,0-.47-1,1.71,1.71,0,0,0-1.74-.42,1.74,1.74,0,0,0-1,.69C288.69,48.87,288.65,49,288.62,49Z" style="fill:#263238"></path><path d="M242.5,117A15.75,15.75,0,0,0,248.91,103l16.83-12.62a16.12,16.12,0,0,0,21.69-16.26l1.62-1.22a11.74,11.74,0,0,0,4.77-10.73A11.42,11.42,0,0,0,295,61.4a9.49,9.49,0,0,0-11.39-15.19,9.29,9.29,0,0,0-1.51,1.42A17.46,17.46,0,0,0,264.91,50l-5.72,4.29-15.76-1.7a15.3,15.3,0,0,0-10.69,3L208.85,73.55a13.94,13.94,0,0,0-5.43,8.6l-3,16.27-.18.13c-5.1,3.83-6.37,10.78-2.83,15.5l6.84,9.12c3.52,4.7,10.52,5.43,15.6,1.62l7.42-5.56A15.77,15.77,0,0,0,242.5,117Zm44.22-61.4a4,4,0,1,1,5.53.79A3.94,3.94,0,0,1,286.72,55.61Z" style="fill:#fff"></path><path d="M242.5,117A15.75,15.75,0,0,0,248.91,103l16.83-12.62a16.12,16.12,0,0,0,21.69-16.26l1.62-1.22a11.74,11.74,0,0,0,4.77-10.73A11.42,11.42,0,0,0,295,61.4a9.49,9.49,0,0,0-11.39-15.19,9.29,9.29,0,0,0-1.51,1.42A17.46,17.46,0,0,0,264.91,50l-5.72,4.29-15.76-1.7a15.3,15.3,0,0,0-10.69,3L208.85,73.55a13.94,13.94,0,0,0-5.43,8.6l-3,16.27-.18.13c-5.1,3.83-6.37,10.78-2.83,15.5l6.84,9.12c3.52,4.7,10.52,5.43,15.6,1.62l7.42-5.56A15.77,15.77,0,0,0,242.5,117Zm44.22-61.4a4,4,0,1,1,5.53.79A3.94,3.94,0,0,1,286.72,55.61Z" style="fill:none"></path><path d="M286.72,55.61s.25.25.74.62a3.89,3.89,0,0,0,2.39.77,3.73,3.73,0,1,0-3.59-4.79,3.94,3.94,0,0,0,.07,2.52c.22.57.43.85.39.88a2,2,0,0,1-.58-.81,4,4,0,0,1-.24-2.69,4.14,4.14,0,0,1,2.76-2.88,4.18,4.18,0,0,1,4.73,6.3,4.12,4.12,0,0,1-3.54,1.84,3.94,3.94,0,0,1-2.52-1A2,2,0,0,1,286.72,55.61Z" style="fill:#263238"></path><path d="M242.5,117s-.28.22-.85.63a16.17,16.17,0,0,1-7.64,2.7,15.08,15.08,0,0,1-6.83-1h.11l-4,3L221.16,124c-.75.56-1.51,1.15-2.36,1.68a12.23,12.23,0,0,1-6,1.75,10.93,10.93,0,0,1-6.5-1.89,11.44,11.44,0,0,1-2.57-2.58l-2.24-3c-1.51-2-3.11-4.07-4.69-6.29a10.56,10.56,0,0,1-1.42-8.12,12.43,12.43,0,0,1,4.81-7.28l-.08.14c1-5.48,2-11.21,3.24-17.19a14.27,14.27,0,0,1,5.13-7.7l7.66-5.75,16-12a15.82,15.82,0,0,1,9.71-3.48,20.89,20.89,0,0,1,2.64.2l2.62.28,5.26.57,6.83.73-.19.05,5.16-3.86a24.45,24.45,0,0,1,2.67-1.8,19.14,19.14,0,0,1,2.93-1.31,17.36,17.36,0,0,1,12.36.26l-.3.07a9.74,9.74,0,1,1,12.08,14.87l.12-.23a11.58,11.58,0,0,1-1.51,7.17,12.55,12.55,0,0,1-2.23,2.82c-.88.82-1.84,1.47-2.75,2.17l.09-.2a15.61,15.61,0,0,1-1.75,8.68,16.84,16.84,0,0,1-5.65,6.17,15.93,15.93,0,0,1-14.57,1.59l.16,0L249,103.06l0-.11a15.07,15.07,0,0,1-1,6.88,16.11,16.11,0,0,1-2.55,4.36,15.8,15.8,0,0,1-2.18,2.19c-.54.43-.83.63-.83.63s.26-.24.79-.68a17.92,17.92,0,0,0,2.12-2.21,16,16,0,0,0,2.48-4.36,14.86,14.86,0,0,0,.9-6.78v-.07l.06,0,16.8-12.67.07,0,.09,0A15.6,15.6,0,0,0,280,88.58a16.51,16.51,0,0,0,5.5-6,15.21,15.21,0,0,0,1.68-8.45V74l.1-.08c.9-.7,1.87-1.35,2.7-2.14A11.38,11.38,0,0,0,292.14,69a11.19,11.19,0,0,0,1.45-6.88l0-.16.14-.08a9.25,9.25,0,0,0,3-13.57,9.24,9.24,0,0,0-14.47-.56l-.12.15-.17-.08a16.89,16.89,0,0,0-12-.25,20.07,20.07,0,0,0-2.84,1.28,25,25,0,0,0-2.62,1.76l-5.15,3.87-.09.06h-.1l-6.82-.74-5.27-.56L244.45,53a22.55,22.55,0,0,0-2.58-.19,15.34,15.34,0,0,0-9.4,3.37l-16,12-7.66,5.74a13.8,13.8,0,0,0-5,7.43c-1.18,5.91-2.22,11.68-3.27,17.15v.09l-.07,0a12,12,0,0,0-4.67,7,10.18,10.18,0,0,0,1.35,7.81c1.54,2.18,3.16,4.26,4.66,6.29l2.23,3a10.1,10.1,0,0,0,8.76,4.37,11.88,11.88,0,0,0,5.82-1.68c.82-.51,1.59-1.09,2.34-1.66l2.18-1.62,4-3,0,0,.06,0a15.14,15.14,0,0,0,6.73,1,16.06,16.06,0,0,0,4.88-1.15,17.9,17.9,0,0,0,2.75-1.42C242.19,117.2,242.5,117,242.5,117Z" style="fill:#263238"></path><path d="M268.48,54.77l-8.23,6.17-19.38-2.86a7.08,7.08,0,0,0-5.28,1.35L211.7,77.34a6,6,0,0,0-2.34,3.92l-3,20.06-2.64,2A4.06,4.06,0,0,0,203,109l7.39,9.86a4,4,0,0,0,5.62.8l9.31-7a11.19,11.19,0,0,1,17.9-13.42L264,83.67a11.19,11.19,0,0,1,17.91-13.42l3.35-2.51A4.1,4.1,0,0,0,286,62l-4-5.3A9.7,9.7,0,0,0,268.48,54.77Z" style="fill:#CAAD51"></path><path d="M241,101.74a8,8,0,1,1-11.19-1.6A8,8,0,0,1,241,101.74Z" style="fill:#CAAD51"></path><path d="M279.56,72.85a8,8,0,1,1-11.19-1.6A8,8,0,0,1,279.56,72.85Z" style="fill:#CAAD51"></path><path d="M214.91,95.24a2,2,0,0,1-3.18-1.88l.68-4.84,1.22-7.18a1.17,1.17,0,0,1,.46-.75l8.72-6.53a1.17,1.17,0,0,1,1.64.23l5.92,7.89a1.18,1.18,0,0,1-.24,1.65Z" style="fill:#fff"></path><path d="M227.55,72.06l5.83,7.78a1.26,1.26,0,0,0,1.75.25l16.68-12.52a1.24,1.24,0,0,0,.25-1.74l-1.29-1.73a1.26,1.26,0,0,0-.79-.48l-10.31-1.73a1.27,1.27,0,0,0-1,.24L227.8,70.31A1.26,1.26,0,0,0,227.55,72.06Z" style="fill:#fff"></path><path d="M322.48,66,288.34,55.44a14,14,0,0,0-17.5,9.23l-23.36,75.42a14,14,0,0,0,9.23,17.51l34.13,10.57a14,14,0,0,0,17.51-9.23l23.36-75.42A14,14,0,0,0,322.48,66Zm-12.8,12-17.14-5.31a4.28,4.28,0,1,1,2.53-8.18l17.14,5.31A4.28,4.28,0,1,1,309.68,78Z" style="fill:#263238"></path><rect x="259.01" y="90.66" width="60.48" height="44.54" rx="5.25" transform="translate(95.8 355.82) rotate(-72.79)" style="fill:#455a64"></rect><path d="M320.66,110.47c0,.14-12.88-3.71-28.68-8.6s-28.56-9-28.52-9.11,12.88,3.71,28.68,8.61S320.7,110.34,320.66,110.47Z" style="fill:#455a64"></path><path d="M314.22,131.25c0,.14-12.64-3.64-28.15-8.44s-28-8.81-28-9,12.64,3.65,28.15,8.45S314.27,131.12,314.22,131.25Z" style="fill:#455a64"></path><path d="M299.7,157.06a5.58,5.58,0,1,1-3.68-7A5.57,5.57,0,0,1,299.7,157.06Z" style="fill:#e0e0e0"></path><path d="M288.53,163.81s.25,0,.74.16c.25.05.54.15.91.2l1.28.18c.48,0,1,.06,1.63.06a16,16,0,0,0,2-.18,14.39,14.39,0,0,0,4.65-1.5,14.67,14.67,0,0,0,4.72-3.85,13,13,0,0,0,1-1.4c.15-.25.31-.5.46-.76l.4-.81a24.16,24.16,0,0,0,1.27-3.57l5.27-17.15c3.92-12.71,8.59-27.83,13.76-44.62.33-1,.65-2.11,1-3.17a25.77,25.77,0,0,0,.86-3.21,14.8,14.8,0,0,0-.35-6.64,14.65,14.65,0,0,0-9.14-9.69c-9.09-2.89-18.58-5.77-28.26-8.79a15.1,15.1,0,0,0-7.34-.34,14.77,14.77,0,0,0-6.51,3.21,14.24,14.24,0,0,0-4.13,5.82c-.81,2.26-1.46,4.61-2.19,6.88L262.32,101l-7.41,23.83-3.36,10.8a15.09,15.09,0,0,0-.2,10.11,14.82,14.82,0,0,0,5.51,7.38c2.43,1.73,5.25,2.32,7.75,3.15l12.92,4.05,8.16,2.57,2.12.69c.48.15.72.25.72.25l-.73-.2-2.14-.64-8.19-2.48-13-4-3.91-1.21a15.68,15.68,0,0,1-3.94-1.94,15.14,15.14,0,0,1-6.48-12.61c0-.44,0-.88.07-1.32s.13-.89.2-1.33c.2-.88.43-1.76.71-2.62l3.33-10.81c2.3-7.47,4.77-15.45,7.36-23.84s5.32-17.21,8.14-26.35c.73-2.28,1.37-4.59,2.2-6.91a14.85,14.85,0,0,1,4.28-6,15.33,15.33,0,0,1,6.73-3.32,15.59,15.59,0,0,1,7.61.36c9.68,3,19.14,5.89,28.27,8.79a15.19,15.19,0,0,1,9.45,10,15.38,15.38,0,0,1,.35,6.87,25,25,0,0,1-.88,3.27c-.32,1.06-.65,2.11-1,3.16L313.16,135.3c-2,6.34-3.77,12.08-5.34,17.12a23.72,23.72,0,0,1-1.31,3.61c-.13.27-.27.55-.41.82s-.31.51-.47.77a12.39,12.39,0,0,1-1,1.41,15,15,0,0,1-9.54,5.36,16.12,16.12,0,0,1-2,.15c-.61,0-1.16-.06-1.64-.09l-1.28-.2c-.37-.07-.67-.17-.91-.23C288.77,163.89,288.53,163.81,288.53,163.81Z" style="fill:#455a64"></path><path d="M313,108.3c0,.14-9.5-2.67-21.12-6.27s-21-6.63-21-6.77,9.5,2.67,21.12,6.27S313.05,108.16,313,108.3Z" style="fill:#263238"></path><path d="M306.58,128.74c-.05.14-9.48-2.66-21.07-6.25s-21-6.61-20.91-6.75,9.47,2.66,21.06,6.25S306.62,128.6,306.58,128.74Z" style="fill:#263238"></path><path d="M262.4,130.71c-.14-.05,2.8-9.92,6.55-22.05s6.92-22,7.06-21.9-2.8,9.91-6.56,22S262.53,130.75,262.4,130.71Z" style="fill:#263238"></path><path d="M300.67,142.37c-.14,0,2.77-9.84,6.5-21.88s6.87-21.77,7-21.72-2.77,9.83-6.5,21.88S300.81,142.41,300.67,142.37Z" style="fill:#263238"></path><path d="M293.81,45.24s.3-.57.51-.92a16.94,16.94,0,0,1,1.27-1.86c.06-.08.25-.4.35-.44s-.31.35-.07.1a1.46,1.46,0,0,1,.16-.19c.27-.3.55-.6.84-.88a17.27,17.27,0,0,1,1.66-1.42s.35-.3.38-.28-.33.23-.09.07l.25-.17c.32-.21.64-.4,1-.59a17.55,17.55,0,0,1,1.95-.95l.22-.09.11,0h0c-.14.15-.07,0,.06,0l.28-.1,1-.32a20.13,20.13,0,0,1,2.21-.46l.55-.07a1.05,1.05,0,0,1,.24,0c-.22-.06-.32,0-.11,0,.39,0,.79-.06,1.18-.07a18.31,18.31,0,0,1,2.34.09c.36,0,.72.07,1.08.13.08,0,.36,0,.08,0s.09,0,.13,0l.64.13a20.07,20.07,0,0,1,2.3.64c.38.12.74.26,1.11.41l.47.2a1.75,1.75,0,0,1,.24.11c-.37-.29-.14-.06,0,0a19.56,19.56,0,0,1,2,1.13c.32.21.63.42.93.65l.4.3.24.2c.34.26-.11-.11,0,0,.56.5,1.1,1,1.61,1.55a22.21,22.21,0,0,1,1.45,1.76c.1.15.15.08-.07-.09a.81.81,0,0,1,.14.2c.11.16.21.31.3.47.21.32.41.66.6,1a18.14,18.14,0,0,1,1,2,1.38,1.38,0,0,1,.18.46c0-.35-.08-.23,0,0l.11.3c.11.35.22.7.32,1.06a19.92,19.92,0,0,1,.46,2.17c0,.21.06.41.08.62a1.07,1.07,0,0,1,0,.25s0-.45,0-.11.06.79.07,1.18a19.33,19.33,0,0,1-.1,2.28c0,.19,0,.38-.06.57s0,.42-.08.51l.05-.24a1.06,1.06,0,0,0,0,.19l-.06.32c0,.21-.09.42-.14.63a19.76,19.76,0,0,1-.68,2.27c-.13.34-.27.69-.42,1a1.6,1.6,0,0,1-.13.3s.2-.42.05-.11l-.29.57a18.51,18.51,0,0,1-1.18,2c-.22.31-.44.61-.67.9-.08.11-.2.34-.31.39l.15-.18-.12.14-.21.24a17.69,17.69,0,0,1-1.63,1.61c-.26.23-.53.45-.8.67l-.44.33c-.07,0-.18.17-.25.19.14,0,.29-.21,0,0A21.3,21.3,0,0,1,316.67,69c-.31.16-.62.31-.94.45l-.51.22a1.75,1.75,0,0,1-.57.23s.42-.15.1,0l-.23.08-.53.18c-.37.11-.75.22-1.12.31a18.47,18.47,0,0,1-2.2.4l-.31,0c-.25,0,.37,0,.12,0s-.38,0-.57,0c-.37,0-.75,0-1.12,0a20.46,20.46,0,0,1-2.35-.16c-.18,0-.38-.07-.57-.08l.12,0-.26,0c-.43-.08-.85-.18-1.27-.29a20.25,20.25,0,0,1-2.62-.9c-.13,0-.65-.3-.28-.12-.22-.11-.44-.21-.65-.33-.45-.23-.89-.49-1.32-.76s-.79-.52-1.17-.81l-.5-.38-.25-.2c.34.27-.06-.06-.1-.09a19.57,19.57,0,0,1-2-2,1.9,1.9,0,0,0-2.65-.12,1.92,1.92,0,0,0-.12,2.65,20.9,20.9,0,0,0,32.73-26,21.38,21.38,0,0,0-17.86-8.55,19.92,19.92,0,0,0-16.65,9.68,5.62,5.62,0,0,0-.84,1.73A11.65,11.65,0,0,1,293.81,45.24Z" style="fill:#e0e0e0"></path><path d="M293.81,45.24a7.21,7.21,0,0,0-.85-.37,15.22,15.22,0,0,0-2.75-.62h-.08l0-.07a5.55,5.55,0,0,1,.85-1.76h0a19.36,19.36,0,0,1,4-4.83,20,20,0,0,1,7.43-4.09,21.33,21.33,0,0,1,10.5-.45,21.82,21.82,0,0,1,10.83,5.78,21.17,21.17,0,0,1,5.62,19.92,21.09,21.09,0,0,1-3.25,7.13,21.07,21.07,0,0,1-30.15,4.69,20.5,20.5,0,0,1-2.59-2.34l-.59-.64a2.29,2.29,0,0,1-.51-.79,2.16,2.16,0,0,1,.18-1.87,2.12,2.12,0,0,1,3.33-.39l1.17,1.2.58.59a3.9,3.9,0,0,0,.28.29l.17.13,0,0h0c-.22.07.45-.21-.33.4l0,0-.05,0-.08-.07.32-.4c.6.5,1.23.91,1.86,1.34s1.3.78,2,1.11l-.23.46-.07,0,0,0-.05,0a.32.32,0,0,1-.08-.09.18.18,0,0,1,0-.11.25.25,0,0,1,.06-.17.24.24,0,0,1,.18-.09c.18,0,.1,0,.12,0h0l.15.07a2.48,2.48,0,0,0,.3.13l.63.21,1.24.43a6.86,6.86,0,0,0,1.25.36l.63.15.32.06h.07c.11-.43-.19.59-.09.5H306l-.13,0,0-.51c.88.15,1.67.13,2.49.21a10.1,10.1,0,0,0,1.23,0l.62,0h.34s.14,0,.22.2-.08.22-.08.24l0,0a.09.09,0,0,1-.07,0h-.39s-.12,0-.14-.27.19-.18.19-.21h.09c.81-.11,1.59-.28,2.39-.42.39-.09.77-.21,1.15-.31l.57-.18.29-.1,0,0h0c.05,0-.1,0,.12,0,.13.9,0,.26.05.46h0l0,0-.08,0a.92.92,0,0,1-.23.06v-.5a1.76,1.76,0,0,0,.47-.2l.55-.24c.36-.19.74-.34,1.08-.54l1-.62.52-.3.26-.16.11-.06h.06a.26.26,0,0,1,.21.08.22.22,0,0,1,.06.21c0,.1,0,.09,0,.1l0,0,0,0a.13.13,0,0,1-.06,0,.45.45,0,0,1-.22.1l-.1-.47c-.06,0,.06,0,.14-.13l.24-.18.46-.37a9,9,0,0,0,.87-.77c.53-.55,1.12-1.06,1.61-1.64l.36.31-.15.18-.28-.37s.17-.26.29-.42l.37-.5a9.32,9.32,0,0,0,.66-1l.63-1c.11-.17.2-.36.29-.53l.14-.28,0,0v0h0c-.25-.21.61.08.41.19h0l0,0,0,.07a.69.69,0,0,1-.1.18L324.1,61l.45-1.1c.15-.39.25-.79.37-1.17l.36-1.17c.09-.39.17-.79.24-1.18l.45.08,0,.24-.4-.18c0-.38.07-.76.1-1.13s0-.82.05-1.22a9.81,9.81,0,0,0,0-1.21l0-.6,0-.3V52h0c-.17-.15.68-.18.43,0h0v.12a.56.56,0,0,1,0,.2l-.43-.07a24,24,0,0,0-.44-2.38,7.31,7.31,0,0,0-.3-1.16c-.06-.2-.11-.39-.17-.58a1.31,1.31,0,0,1-.1-.33v-.07a.18.18,0,0,1,0-.06.3.3,0,0,1,.06-.11.24.24,0,0,1,.26,0l.05,0c.09.16,0,.12.07.18v.17l-.41,0a4.09,4.09,0,0,0-.22-.49l-.25-.54c-.17-.35-.34-.7-.5-1-.33-.66-.79-1.37-1.12-1.89l-.64-1,.88.7a.56.56,0,0,1,.16.15.21.21,0,0,1,.05.07s0,0,0,.05v0a.19.19,0,0,1,0,.13.23.23,0,0,1-.16.1h-.07l-.06,0a.44.44,0,0,1-.12-.11l-.21-.26-.42-.51-.82-1-1.54-1.5a17,17,0,0,0-2-1.39l-1-.58-.51-.29a1.86,1.86,0,0,1-.28-.18l0-.05h0a.18.18,0,0,1,0-.18c.15-.18.13-.08.17-.11s.1,0,.09,0h0l.07.05.12.09,1.14.88-1.36-.6a16.05,16.05,0,0,0-2.7-1L312,37.06l-.66-.13-.16,0h-.12c.05-.61.05-.18.05-.31h.28c0-.28.08.37,0,.32h-.19a20.64,20.64,0,0,0-2.55-.2c-.41,0-.82-.05-1.21,0l-.6,0h-.41a.18.18,0,0,1-.07-.08s0-.16,0-.17l.05,0,.13,0a.52.52,0,0,1,.18,0l.71.19-.78.08c-.8.08-1.67.3-2.41.44a7.56,7.56,0,0,0-1.09.28l-.52.15-.24.09-.08,0h0s0,0,0-.08,0-.05-.05-.09-.14,0-.12,0h0l0,0,0,0h0l.08,0h0s.18.05.15.12a.12.12,0,0,1-.07.11h-.05l-.15.06a2.08,2.08,0,0,0-.3.13l-.57.27-1.05.5a8.89,8.89,0,0,0-.92.53l-.43.26-.21.14h-.07s0,0-.08,0,0-.1,0-.11l0,0,0,0,.06,0,.05,0,0,0h0s0,0,.12,0l-.11.16c.14,0,.05,0,.06,0l0,0-.07.05-.13.11-.27.22-.5.42L297,41c-.28.24-.5.5-.73.73l-.33.34-.08.09,0,0h0s0,.08-.11-.06c0-.07,0,0,0,0l0,0a1.49,1.49,0,0,1,.18-.18l.34-.26-.3.39c-.75,1-1.32,1.84-1.67,2.35l-.48.8s.14-.29.43-.84c.15-.27.39-.6.65-1l.45-.66.24-.37a1.21,1.21,0,0,1,.34-.4l0,.07c0,.09,0,0,0,0h0l0,0,0,0-.07.08,0,0c-.17-.15-.07-.07-.09-.09h0l0,0,.08-.09a3.39,3.39,0,0,1,.32-.35c.22-.23.45-.5.72-.75l.91-.79.49-.43.26-.22.14-.11.08-.06,0,0s0,0,.15,0h0l-.08.08s0,.06,0,.09h0l-.05,0-.05,0,0,0a1.69,1.69,0,0,1-.11-.17h0l.2-.14.43-.27a9.09,9.09,0,0,1,.93-.54l1.06-.52.56-.28.31-.13.15-.06,0,0h0s0,0,0,.07.09,0,0,0,0,.1,0,.11h0l-.08,0,.05,0-.06.05,0,0h0a.13.13,0,0,1-.12,0,.11.11,0,0,1-.06-.09c0-.1,0-.09,0-.09h0l0,0a.38.38,0,0,1,.15-.09l.25-.09.52-.16a9,9,0,0,1,1.11-.3l1.19-.25a7.9,7.9,0,0,1,1.35-.2l-.07.27-.11,0h0l0-.08c0-.06,0,0,0-.11s0,0,0-.06h.28l.59,0c.41,0,.82,0,1.24,0a21,21,0,0,1,2.58.18l.16,0h0c-.13.13,0,.25,0,.31h-.21a1,1,0,0,1,0-.18c0-.18,0-.13,0-.14h.06l.17,0,.68.13,1.36.38a16,16,0,0,1,2.82,1l-.22.28-.11-.09-.05,0s0,0,0,0,.05-.11.12-.19l.09-.08h0a1.73,1.73,0,0,0,.2.14l.51.29,1.05.58a17.91,17.91,0,0,1,2,1.41L321.5,42q.4.51.84,1l.42.52.21.25c.1,0-.17.26-.26.26a.38.38,0,0,0-.09-.08l.24-.32a20.13,20.13,0,0,1,2.26,4.27l-.41,0,0-.13s-.06,0,.17-.08c0,0,.09,0,.18,0s0,0,0,0a1.37,1.37,0,0,0,.07.24c.07.19.12.39.19.58a9.44,9.44,0,0,1,.31,1.19,20.09,20.09,0,0,1,.45,2.55h0l-.23,0a.37.37,0,0,0-.18,0s0,0,0,0h0V52h0c.07,0,.19-.06.28,0h.15v.33l0,.61a10.3,10.3,0,0,1,0,1.24c0,.41,0,.83-.05,1.25,0,.21,0,.42-.06.63s0,.18,0,.3a.74.74,0,0,1-.11.44l-.61,1.08.21-1.26,0-.24.45.08c-.07.4-.16.8-.25,1.2l-.36,1.2c-.13.4-.23.81-.38,1.2l-.24.59-.12.3a1.18,1.18,0,0,1-.16.34l-.2-.16a.78.78,0,0,0-.15-.1h0l0,0,0-.07,0-.06h0s-.05,0,.09,0a.8.8,0,0,1,.31.15h0l0,0-.14.28a4,4,0,0,1-.29.54L323.5,63a9.08,9.08,0,0,1-.68,1.06l-.37.51c-.15.15-.12.31-.48.56l-1.46,1,1.18-1.41.16-.18.36.31c-.5.6-1.1,1.12-1.65,1.69a9.64,9.64,0,0,1-.89.79,5.45,5.45,0,0,1-.47.37l-.23.18a.86.86,0,0,1-.34.22l-.1-.46s0,0,0,0,0,0,.07.07a.41.41,0,0,0,.1.09s0,.06,0,.1.06.11.05.13l0,0-.25.15-.52.31-1,.63c-.35.21-.73.37-1.1.55l-.57.25a1.88,1.88,0,0,1-.66.25h0v-.26a.32.32,0,0,0,0-.14c0-.12,0-.09,0-.09h0l.07,0,.06,0a2.12,2.12,0,0,1,.14.4c0,.08,0,.06,0,.06h0l0,0-.29.09-.58.19c-.39.11-.79.23-1.19.33-.8.14-1.62.32-2.44.43h0c0,.07-.07-.19,0-.24s0,0,0,0,0,0,0,0a.17.17,0,0,0,0-.1c0-.15,0-.09,0-.1h.17a.37.37,0,0,1,0,.12.14.14,0,0,0,0,.09l0,0s0,0,0,0,0,.25,0,.25h-.27l-.62,0a10.59,10.59,0,0,1-1.26,0c-.82-.07-1.72-.07-2.5-.2l0-.51.2,0,.09,0h0c.09-.09-.21.93-.1.5H306l-.32-.06-.66-.15a7.45,7.45,0,0,1-1.28-.37L302.45,70l-.64-.22a2.88,2.88,0,0,1-.31-.13l-.15-.07h0s-.06,0,.1,0,.13-.19.07-.2-.11,0,0,0,.17-.17.13-.18,0,0,0,0l0,0,.07,0-.23.46c-.69-.33-1.36-.74-2-1.13s-1.3-.88-1.9-1.38l.32-.4.09.06,0,0h0s0,0-.1.13-.3.32-.23.26h0l-.16-.13c-.11-.1-.2-.2-.3-.31l-.6-.6-1.18-1.22a1.62,1.62,0,0,0-2.51.31,1.6,1.6,0,0,0-.13,1.41,4.72,4.72,0,0,0,1,1.27,19.66,19.66,0,0,0,2.53,2.28,20.59,20.59,0,0,0,29.43-4.56,20.58,20.58,0,0,0,3.18-7,20.72,20.72,0,0,0-5.45-19.51,21.38,21.38,0,0,0-10.61-5.72,21.05,21.05,0,0,0-10.33.38,20.1,20.1,0,0,0-7.37,4,19.5,19.5,0,0,0-4,4.73h0a5.47,5.47,0,0,0-.85,1.69l0-.08a13.71,13.71,0,0,1,2.76.69,3.79,3.79,0,0,1,.63.3A1.41,1.41,0,0,1,293.81,45.24Z" style="fill:#263238"></path><path d="M286.78,136.94l-7.63-2.36,2.36-7.63,7.63,2.36Zm-6.38-3,5.72,1.77,1.77-5.72-5.72-1.77Z" style="fill:#CAAD51"></path><path d="M298.76,99.07l-7.62-2.36,2.36-7.63,7.63,2.36Zm-6.37-3,5.72,1.77,1.77-5.72-5.72-1.77Z" style="fill:#CAAD51"></path><path d="M290.18,116.73a4.53,4.53,0,0,1-1.26-.19,4.24,4.24,0,1,1,2.51-8.1,4.24,4.24,0,0,1,2.79,5.3,4.23,4.23,0,0,1-4,3Zm0-7.48a3.22,3.22,0,0,0-3.09,2.28,3.18,3.18,0,0,0,.23,2.47,3.24,3.24,0,0,0,1.9,1.58,3.24,3.24,0,0,0,4.05-2.13,3.23,3.23,0,0,0-2.13-4.06A3.54,3.54,0,0,0,290.17,109.25Z" style="fill:#CAAD51"></path></g><g id="freepik--Car--inject-159"><path d="M288.9,346.15s-5-4.85-6.39,24.51c-1.35,27.7-3.32,67.65,3.57,84.79a9.2,9.2,0,0,0,3.81,4.48,16.41,16.41,0,0,0,6,2.09c6,.9,29.68.39,29.68.39s13.45,0,13.65-10.7c.17-8.8,0-27.95,0-27.95Z" style="fill:#263238"></path><g style="opacity:0.30000000000000004"><path d="M288.9,346.15s-5-4.85-6.39,24.51c-1.35,27.7-3.32,67.65,3.57,84.79a9.2,9.2,0,0,0,3.81,4.48,16.41,16.41,0,0,0,6,2.09c6,.9,29.68.39,29.68.39s13.45,0,13.65-10.7c.17-8.8,0-27.95,0-27.95Z"></path></g><path d="M345.44,352.6s5-4.85,6.4,24.5c1.34,27.71,3.31,67.65-3.57,84.79a9.25,9.25,0,0,1-3.82,4.49,16.16,16.16,0,0,1-6,2.08c-6,.9-29.68.4-29.68.4s-13.44,0-13.65-10.7c-.16-8.81,1.05-39.66,1.05-39.66Z" style="fill:#263238"></path><path d="M345.44,352.6l-.22.32c-.15.22-.38.53-.67.93l-2.63,3.58c-2.33,3.14-5.72,7.71-10,13.51l-35.52,47.69,0-.12c-.35,9.69-.73,20.09-1,31-.05,2.73-.1,5.5-.06,8.28,0,.7.12,1.37.17,2.06a9.13,9.13,0,0,0,.25,1,5.61,5.61,0,0,0,.32,1,9.55,9.55,0,0,0,2.44,3.36,15.81,15.81,0,0,0,8,3.21,33,33,0,0,0,4.47.24l4.55.06c5.23.05,10.4.07,15.49,0a71.6,71.6,0,0,0,7.52-.47,15,15,0,0,0,6.7-2.7,9.28,9.28,0,0,0,2.25-2.67,22.41,22.41,0,0,0,1.25-3.26,28.32,28.32,0,0,0,.95-3.35l.43-1.67c.12-.57.21-1.13.32-1.69a118.38,118.38,0,0,0,1.72-13.33c.66-8.73.76-17.06.71-24.84s-.29-15.05-.55-21.67c-.59-13.23-.85-24-2.12-31.29-.61-3.64-1.32-6.49-2.4-8.14-.49-.83-1.19-1.31-1.71-1.24a1.29,1.29,0,0,0-.71.26.53.53,0,0,1,.15-.13,1.18,1.18,0,0,1,.56-.18c.55-.09,1.29.4,1.8,1.24,1.12,1.66,1.86,4.51,2.51,8.16,1.33,7.32,1.65,18.07,2.29,31.31.28,6.62.53,13.88.61,21.67s0,16.14-.66,24.89A119.3,119.3,0,0,1,351,452.93c-.11.57-.2,1.14-.32,1.71l-.43,1.69a29.39,29.39,0,0,1-1,3.38,21.3,21.3,0,0,1-1.29,3.34,9.41,9.41,0,0,1-2.37,2.82,15.55,15.55,0,0,1-6.93,2.81,71.29,71.29,0,0,1-7.6.48c-5.1.12-10.27.1-15.5,0l-4.56-.06a34.56,34.56,0,0,1-4.53-.24,16.39,16.39,0,0,1-8.26-3.34,10,10,0,0,1-2.57-3.55,5.37,5.37,0,0,1-.33-1,9.51,9.51,0,0,1-.27-1.05c-.05-.71-.17-1.43-.18-2.13,0-2.8,0-5.56.08-8.3.24-10.92.62-21.33,1-31v-.07l0-.05c14.67-19.56,27-36,35.68-47.6l10.12-13.43,2.69-3.54.69-.9A3.28,3.28,0,0,1,345.44,352.6Z" style="fill:#455a64"></path><path d="M95.47,346.4s5-4.85,6.4,24.51c1.35,27.7,3.32,67.65-3.57,84.79a9.22,9.22,0,0,1-3.82,4.48,16.34,16.34,0,0,1-6,2.09c-6,.9-29.68.39-29.68.39s-13.44,0-13.65-10.7c-.16-8.8,0-27.95,0-27.95Z" style="fill:#263238"></path><g style="opacity:0.30000000000000004"><path d="M95.47,346.4s5-4.85,6.4,24.51c1.35,27.7,3.32,67.65-3.57,84.79a9.22,9.22,0,0,1-3.82,4.48,16.34,16.34,0,0,1-6,2.09c-6,.9-29.68.39-29.68.39s-13.44,0-13.65-10.7c-.16-8.8,0-27.95,0-27.95Z"></path></g><path d="M41.32,352.48s-5-4.85-6.39,24.5c-1.35,27.71-3.32,67.66,3.57,84.79a9.15,9.15,0,0,0,3.82,4.49,16.28,16.28,0,0,0,6,2.09c6,.9,29.68.39,29.68.39s13.45,0,13.65-10.7c.17-8.8-1-39.66-1-39.66Z" style="fill:#263238"></path><path d="M41.32,352.48l.25.3.7.9L45,357.22l10.11,13.43,35.68,47.6,0,.06v.06c.37,9.69.76,20.1,1,31,0,2.73.1,5.49.07,8.29,0,.7-.12,1.42-.18,2.13,0,.36-.18.7-.26,1.05a5.4,5.4,0,0,1-.34,1,9.87,9.87,0,0,1-2.57,3.55,16.32,16.32,0,0,1-8.25,3.34,33,33,0,0,1-4.54.24l-4.55.06c-5.23.06-10.41.07-15.5,0a73.82,73.82,0,0,1-7.6-.47,15.67,15.67,0,0,1-6.94-2.82,9.56,9.56,0,0,1-2.37-2.82,22.33,22.33,0,0,1-1.29-3.34,31.55,31.55,0,0,1-1-3.38l-.42-1.69c-.12-.57-.22-1.14-.33-1.7a119.77,119.77,0,0,1-1.71-13.38c-.64-8.75-.72-17.09-.65-24.89s.33-15.05.6-21.67c.64-13.23,1-24,2.29-31.31.65-3.65,1.39-6.5,2.51-8.16a2.13,2.13,0,0,1,1.81-1.24,1.16,1.16,0,0,1,.55.19.66.66,0,0,1,.15.12,1.34,1.34,0,0,0-.71-.26c-.52-.07-1.22.41-1.71,1.25-1.07,1.65-1.78,4.49-2.4,8.13-1.26,7.31-1.53,18.06-2.12,31.29-.25,6.62-.48,13.88-.54,21.67s0,16.12.7,24.85a120.87,120.87,0,0,0,1.72,13.32c.11.56.21,1.13.33,1.69L37,456.1a32.53,32.53,0,0,0,1,3.34,22.44,22.44,0,0,0,1.26,3.26,8.86,8.86,0,0,0,2.25,2.67,15,15,0,0,0,6.69,2.7,71.62,71.62,0,0,0,7.53.47c5.09.12,10.25.1,15.48,0l4.55-.06a34.57,34.57,0,0,0,4.47-.23,15.94,15.94,0,0,0,8-3.22,9.53,9.53,0,0,0,2.43-3.36,4.88,4.88,0,0,0,.32-1,8.6,8.6,0,0,0,.25-1c.06-.69.17-1.36.18-2.05,0-2.79,0-5.55-.07-8.28-.23-10.93-.6-21.33-1-31l0,.12L54.86,370.82l-10-13.51c-1.14-1.56-2-2.76-2.63-3.58l-.67-.93Z" style="fill:#455a64"></path><path d="M359.9,272.11s-1.5,5-4.6,5.48-27.55,1.24-27.55,1.24l-2.39,4.76h-4.6l-3.35-19.07,2.85.57a3,3,0,0,1,2.18,1.72h0a3,3,0,0,0,2.48,1.76Z" style="fill:#263238"></path><path d="M358.88,272.85a3.07,3.07,0,0,0,2.88-3.47c-.8-5.45-3.75-16-14.63-17.6a77.26,77.26,0,0,0-20.32-.5c-1.69.21-2.52,1.69-2.73,3.33-.92,7.49-.17,16.77,2.06,17.91S350.94,273.46,358.88,272.85Z" style="fill:#CAAD51"></path><path d="M344.3,251.83a3.63,3.63,0,0,1,.64.74c.38.49.91,1.23,1.52,2.16a54.14,54.14,0,0,1,7.07,15.81c.28,1.07.48,1.95.59,2.56a3.21,3.21,0,0,1,.12.95c-.08,0-.41-1.31-1.06-3.42a72,72,0,0,0-3-8.06,70.64,70.64,0,0,0-4-7.65C345,253,344.23,251.87,344.3,251.83Z" style="fill:#263238"></path><path d="M28,273.28s1.51,5,4.61,5.48S60.14,280,60.14,280l2.39,4.75h4.6l3.35-19.07-2.85.57A3.06,3.06,0,0,0,65.44,268h0A3,3,0,0,1,63,269.74Z" style="fill:#263238"></path><path d="M29,274a3.08,3.08,0,0,1-2.88-3.47c.8-5.45,3.75-16,14.63-17.6a76.74,76.74,0,0,1,20.31-.5c1.7.21,2.53,1.69,2.73,3.33.93,7.49.18,16.77-2,17.91S37,274.62,29,274Z" style="fill:#CAAD51"></path><path d="M43.59,253a35.33,35.33,0,0,1-1.85,3.09,72.59,72.59,0,0,0-4,7.65,69.43,69.43,0,0,0-3,8.07c-.65,2.11-1,3.43-1.06,3.42a3.26,3.26,0,0,1,.12-1c.11-.61.3-1.48.58-2.55a54.2,54.2,0,0,1,7.08-15.81c.61-.93,1.14-1.67,1.52-2.17A4,4,0,0,1,43.59,253Z" style="fill:#263238"></path><path d="M362.19,340.25c-.85-7.39-17.48-26.75-17.48-26.75-4.62-11-13.51-26.9-23.65-42.47-8.07-28.32-22-62.56-28.38-69.95s-11.17-10.24-24.33-9.83-58.76.2-69.84,0H194c-11.07.2-55.54.41-68.71,0s-18,2.44-24.33,9.83S80.66,242.71,72.59,271C62.46,286.6,53.56,302.49,49,313.5c0,0-16.64,19.36-17.49,26.75s-1.56,53.22,2.69,65.95c3,9.09,6.64,13,14.49,16.16A53.09,53.09,0,0,0,68.43,426H326.67a42.54,42.54,0,0,0,16.75-3.32c8-3.43,10.49-7.66,13.68-17.2C361.34,392.79,363,347.64,362.19,340.25Z" style="fill:#CAAD51"></path><path d="M280.14,195.6c0-.69-4.27-6.4-6.62-9.06s-3.26-2.57-5.29-2.36c-2.54.25-8.58,3.34-8.89,4.52a44.4,44.4,0,0,0-.48,5l4.07-.1s-.9-3.62.3-4.34c1.78-1.07,2.45-1.37,3.88-.78s3.26,5.31,3.26,5.31Z" style="fill:#e0e0e0"></path><path d="M114.39,191.39a1.31,1.31,0,0,1-.2.15l-.59.4c-.51.37-1.27.9-2.17,1.68a33,33,0,0,0-6.38,7.68c-.56.89-1.13,1.84-1.68,2.85l-1.64,3.18c-1.14,2.2-2.31,4.58-3.52,7.09-2.43,5-5.09,10.53-7.72,16.39a227.35,227.35,0,0,0-11.57,30.72c-1.14,4-1.92,7.34-2.42,9.63-.24,1.12-.42,2-.56,2.64l-.16.69a1,1,0,0,1-.07.23.87.87,0,0,1,0-.24c0-.18.06-.41.11-.69.11-.65.27-1.54.46-2.67.44-2.3,1.17-5.62,2.27-9.68A212.39,212.39,0,0,1,90,230.61c2.64-5.86,5.31-11.39,7.77-16.39,1.22-2.51,2.4-4.88,3.57-7.07.57-1.1,1.13-2.17,1.67-3.19s1.14-2,1.71-2.85a31.91,31.91,0,0,1,6.57-7.63A15.87,15.87,0,0,1,114.39,191.39Z" style="fill:#263238"></path><path d="M194.93,206.56s-34.44,0-52.39.12c-12.32.09-40.3-1-41.79,2-.67,1.37-6.89,13.38-12.81,27.25-7.15,16.74-14,36-12.23,40.44l115.23-1.68H312.78s1.36-3.94-1.16-11.07-19.32-50.89-22.23-53.89S237.34,207.1,194.93,206.56Z" style="fill:#263238"></path><path d="M194.9,209.25s-33.06,0-50.3.11c-11.83.08-36.83-.11-40.29,3.43-1.58,1.61-16.28,29.52-22,46.4-2.45,7.27,4.81,13.11,12.72,13.24h213s1.3-3.65-1.12-10.26-18.47-45.36-21.56-47.83C280.14,210.13,235.62,209.75,194.9,209.25Z" style="fill:#455a64"></path><g style="opacity:0.30000000000000004"><path d="M88.19,270.86s9.87-14.4,15.88-15.09c2.6-.29,24.47-.58,52-.83a3.86,3.86,0,0,1,3,1.38h0a4.1,4.1,0,0,1,3.08-1.42c19.93-.17,42.17-.31,62-.42a3.27,3.27,0,0,1,2.25.87h0l0,0a3.33,3.33,0,0,1,2.23-.88c28.86-.16,51.54-.24,52.46-.21,5.05.16,27,18.44,27,18.44l-213.81-.24A16.83,16.83,0,0,1,88.19,270.86Z"></path></g><path d="M119.22,319.92s-7.92,0-7.42,9.34c.27,5.12-1.83,30.49,16.66,34.06s138,1.24,138,1.24,9-.39,11.35-13.32l1.49-22.39s-.64-6-5.66-6.73S119.22,319.92,119.22,319.92Z" style="fill:#e0e0e0"></path><path d="M119.22,319.92l.81,0h2.4l9.26.05,34.46.29,52,.57,31.19.44,16.65.32,4.26.13c.71,0,1.43.06,2.16.1l1.08.07a8.56,8.56,0,0,1,1.1.22,6.46,6.46,0,0,1,3.43,2.68,10,10,0,0,1,1.5,4.06v0c-.48,7.14-1,14.7-1.49,22.39v0h0a25.65,25.65,0,0,1-1.89,6,14.47,14.47,0,0,1-4.09,5.17,11.6,11.6,0,0,1-4.71,2.24,14.52,14.52,0,0,1-2.61.16l-2.57,0-10.17.17-19.9.25c-13.05.14-25.63.23-37.62.23s-23.38-.05-34-.27c-2.67,0-5.28-.12-7.86-.18s-5.09-.14-7.56-.26-4.9-.18-7.27-.38-4.69-.28-6.94-.64a20.65,20.65,0,0,1-6.44-1.6,16.69,16.69,0,0,1-5.15-3.54,23.18,23.18,0,0,1-5.49-9.76,45.65,45.65,0,0,1-1.73-9.56c-.25-3-.27-5.71-.26-8.16,0-1.23,0-2.38,0-3.48,0-.54.12-1.06.18-1.57s.23-1,.41-1.43a7.11,7.11,0,0,1,3-3.69,8.43,8.43,0,0,1,2.85-1,5.66,5.66,0,0,1,1-.08,7.09,7.09,0,0,0-1,.14,8.61,8.61,0,0,0-2.8,1,7.06,7.06,0,0,0-2.94,3.66c-.17.44-.25.92-.39,1.41s-.13,1-.17,1.55c0,1.08,0,2.24,0,3.47,0,2.45,0,5.17.31,8.14a45.06,45.06,0,0,0,1.76,9.5,22.87,22.87,0,0,0,5.45,9.62,16.35,16.35,0,0,0,5.06,3.46,20.33,20.33,0,0,0,6.35,1.55c2.22.35,4.55.43,6.91.62s4.78.24,7.25.36,5,.18,7.57.24,5.18.15,7.85.18c10.65.2,22,.21,34,.21s24.57-.11,37.61-.25l19.9-.27,10.17-.16,2.57-.05a13.77,13.77,0,0,0,2.51-.15,11,11,0,0,0,4.49-2.13,14,14,0,0,0,3.95-5,24.58,24.58,0,0,0,1.85-5.86v0c.51-7.69,1-15.26,1.5-22.39v0A9.51,9.51,0,0,0,277.6,325a5.85,5.85,0,0,0-3.16-2.48,8.62,8.62,0,0,0-1-.21l-1.06-.06c-.71,0-1.41-.09-2.13-.1l-4.25-.13-16.65-.34-31.19-.48-52-.67-34.46-.44-9.26-.14-2.4,0Z" style="fill:#263238"></path><path d="M124.24,325.5s-7.42,0-6.73,6.89c.37,3.73-1.82,22.13,15.28,24.74s122,1.58,122,1.58,13.14-.6,15.94-9.4l1.46-17.3s.49-3.72-4.15-4.28S124.24,325.5,124.24,325.5Z" style="fill:#263238"></path><path d="M257.05,325.5c-.21.5-3.82,35.4-3.82,35.4h6l4.57-35.4Z" style="fill:#e0e0e0"></path><path d="M236.89,325.47c-.18.52-1.33,35.57-1.33,35.57l6-.4L243.67,325Z" style="fill:#e0e0e0"></path><path d="M218.4,325.64c-.17.52-1.32,35.57-1.32,35.57l7.1-.47,1-35.54Z" style="fill:#e0e0e0"></path><path d="M133.47,324.08c.21.51,3.82,35.4,3.82,35.4h-6l-4.57-35.4Z" style="fill:#e0e0e0"></path><path d="M153.63,324.05c.18.52,1.33,35.57,1.33,35.57l-6-.4-2.07-35.61Z" style="fill:#e0e0e0"></path><path d="M172.12,324.23c.17.52,1.32,35.56,1.32,35.56l-7.1-.46-1-35.55Z" style="fill:#e0e0e0"></path><path d="M174.46,325c.69,1.12,13.55,9.61,13.55,9.61h15.63L216,325Z" style="fill:#e0e0e0"></path><polygon points="186.27 329.83 189.57 359.81 201.21 359.81 204.51 329.83 186.27 329.83" style="fill:#e0e0e0"></polygon><path d="M118.68,358.37a7.45,7.45,0,0,1-.83,0l-2.38,0c-2.07,0-5.06-.15-8.75-.36s-8.09-.57-13-1.09S83.58,355.66,78,354.74s-10.83-2-15.59-3.08-9-2.19-12.57-3.19-6.41-1.86-8.37-2.51l-2.25-.74a5.33,5.33,0,0,1-.78-.3,5.41,5.41,0,0,1,.81.2l2.28.65c2,.59,4.85,1.4,8.41,2.36s7.82,2,12.58,3.08,10,2.1,15.57,3,10.88,1.64,15.72,2.2,9.24.94,12.92,1.19,6.67.43,8.74.52l2.37.13A4.11,4.11,0,0,1,118.68,358.37Z" style="fill:#263238"></path><path d="M60,303.58a2.47,2.47,0,0,0-3,1.06c-1.73,3-5,9.52-5.5,16.64-.71,9.75,0,27.47,0,27.47s35.79,8.06,50.6,8.28c0,0-4.59-24.63-8.35-33.94C90.6,315.17,67,306.11,60,303.58Z" style="fill:#f5f5f5"></path><path d="M60,303.58a1.85,1.85,0,0,1,.37.11l1.05.36c.93.33,2.3.83,4.05,1.51A152.5,152.5,0,0,1,80.11,312a58.92,58.92,0,0,1,9.45,5.84,15.46,15.46,0,0,1,4.17,4.58,49.37,49.37,0,0,1,2.15,6.14c1.26,4.26,2.36,8.81,3.43,13.56s2.1,9.7,3.08,14.83l.06.3h-.32a110.63,110.63,0,0,1-12.66-1.18c-6.91-1-13.58-2.16-19.94-3.38S57.12,350.23,51.48,349l-.17,0v-.17c-.24-7.19-.34-13.82-.24-19.71,0-2.95.13-5.71.35-8.27a33.5,33.5,0,0,1,1.44-6.92,45.48,45.48,0,0,1,4-9.12,2.52,2.52,0,0,1,2.23-1.35,1.85,1.85,0,0,1,.91.19,3.06,3.06,0,0,0-.91-.12,2.45,2.45,0,0,0-2.1,1.35,46.66,46.66,0,0,0-3.91,9.13,32.63,32.63,0,0,0-1.37,6.87c-.2,2.54-.27,5.3-.31,8.24-.06,5.89.06,12.51.33,19.69l-.18-.21c5.63,1.24,11.68,2.49,18,3.71s13,2.41,19.91,3.36a110.25,110.25,0,0,0,12.6,1.18l-.26.3c-1-5.12-2-10.07-3-14.82s-2.15-9.29-3.39-13.54a50.45,50.45,0,0,0-2.1-6.08,15.28,15.28,0,0,0-4-4.46A59.92,59.92,0,0,0,80,312.33c-6-3.12-11-5.18-14.51-6.61l-4-1.58-1-.41Z" style="fill:#263238"></path><path d="M76.31,274a7.35,7.35,0,0,1-.78,1.2l-2.23,3.18c-1.86,2.7-4.34,6.49-7,10.75s-4.9,8.16-6.55,11l-2,3.34a7.38,7.38,0,0,1-.78,1.19,6.62,6.62,0,0,1,.6-1.28c.42-.82,1-2,1.83-3.42,1.58-2.87,3.81-6.81,6.43-11.08s5.15-8,7.1-10.69c1-1.33,1.78-2.39,2.37-3.1A9.26,9.26,0,0,1,76.31,274Z" style="fill:#263238"></path><path d="M113.85,321.46s-.11-.13-.28-.4-.41-.73-.69-1.21a21.56,21.56,0,0,1-1-2c-.37-.77-.8-1.65-1.19-2.66a65.62,65.62,0,0,1-2.51-7.14,91,91,0,0,1-2-9c-.55-3.24-.89-6.34-1.12-9.17s-.29-5.39-.25-7.53c0-1.08,0-2.05.06-2.9s.06-1.58.11-2.18.09-1,.12-1.38a1.31,1.31,0,0,1,.08-.47,2.49,2.49,0,0,1,0,.48c0,.37,0,.83,0,1.38s0,1.33,0,2.18,0,1.81,0,2.88c0,2.14.16,4.69.37,7.5s.61,5.91,1.15,9.13,1.26,6.25,2,9A74.8,74.8,0,0,0,111,315.1c.37,1,.77,1.9,1.12,2.68s.64,1.45.92,2l.61,1.25A2.32,2.32,0,0,1,113.85,321.46Z" style="fill:#263238"></path><g style="opacity:0.30000000000000004"><path d="M47.51,345.08s-4.06,9,21.16,14.45c25.53,5.5,49.18-1.14,49.18-1.14l-14-.61s-52-7.43-52.21-9.64c-.82-8.65-.39-22.5-.39-22.5Z"></path></g><ellipse cx="65.35" cy="321.73" rx="8.51" ry="8.23" style="fill:#f5f5f5"></ellipse><path d="M73.86,321.73c-.06,0,0-.73-.36-2a8.23,8.23,0,0,0-3.11-4.42,8.46,8.46,0,0,0-3.51-1.48,8.62,8.62,0,0,0-4.35.37A8.2,8.2,0,0,0,58.7,317a7.76,7.76,0,0,0,0,9.44,7.58,7.58,0,0,0,1.74,1.7,7.73,7.73,0,0,0,2.09,1.09,8.62,8.62,0,0,0,4.35.37,8.46,8.46,0,0,0,3.51-1.48,8.18,8.18,0,0,0,3.11-4.41,19.94,19.94,0,0,0,.36-2,1.8,1.8,0,0,1,0,.53,6.35,6.35,0,0,1-.2,1.51,8.12,8.12,0,0,1-3.08,4.65A8.78,8.78,0,0,1,67,330a9,9,0,0,1-4.59-.34,8.49,8.49,0,0,1-2.22-1.14,7.94,7.94,0,0,1-1.86-1.8,8.2,8.2,0,0,1-1.71-5,8.28,8.28,0,0,1,1.71-5,7.89,7.89,0,0,1,1.86-1.79,8.23,8.23,0,0,1,2.22-1.15,9.08,9.08,0,0,1,4.59-.34,8.66,8.66,0,0,1,3.65,1.61,8.12,8.12,0,0,1,3.08,4.65,6.28,6.28,0,0,1,.2,1.5A1.8,1.8,0,0,1,73.86,321.73Z" style="fill:#263238"></path><path d="M65.35,321.38a8.3,8.3,0,0,1,7.25,4.15,7.81,7.81,0,0,0,1-3.86,8.28,8.28,0,0,0-16.56,0,7.71,7.71,0,0,0,1,3.86A8.28,8.28,0,0,1,65.35,321.38Z" style="fill:#e0e0e0"></path><path d="M69,321.46a3.67,3.67,0,1,1-3.67-3.54A3.61,3.61,0,0,1,69,321.46Z" style="fill:#fff"></path><path d="M69,321.46s0-.31-.21-.84a3.57,3.57,0,0,0-4.63-2.27,3.29,3.29,0,0,0,0,6.23,3.58,3.58,0,0,0,4.63-2.28c.16-.52.16-.84.21-.84a1.76,1.76,0,0,1,0,.89,3.54,3.54,0,0,1-1.32,2.07A3.92,3.92,0,0,1,64,325a3.72,3.72,0,0,1,0-7.1,4,4,0,0,1,3.66.59A3.54,3.54,0,0,1,69,320.57,1.76,1.76,0,0,1,69,321.46Z" style="fill:#263238"></path><path d="M68.56,315.89c-.19.31-1,.16-2.13.15a8.57,8.57,0,0,0-4.05.84,8.32,8.32,0,0,0-3,2.78c-.62.92-.94,1.65-1.31,1.63s-.7-.87-.41-2.27a6.68,6.68,0,0,1,3.48-4.36,7.1,7.1,0,0,1,5.68-.36C68.21,314.85,68.74,315.62,68.56,315.89Z" style="fill:#fff"></path><path d="M82.33,339.7a12.56,12.56,0,0,1,11,6.27,11.67,11.67,0,0,0,1.55-5.83,12.52,12.52,0,0,0-25,0A11.77,11.77,0,0,0,71.36,346,12.57,12.57,0,0,1,82.33,339.7Z" style="fill:#e0e0e0"></path><path d="M87.72,339.75a5.39,5.39,0,1,1-5.39-5.22A5.3,5.3,0,0,1,87.72,339.75Z" style="fill:#fff"></path><path d="M87.72,339.75s0-.47-.27-1.25a5.13,5.13,0,0,0-2-2.75,5.34,5.34,0,0,0-4.91-.68,4.93,4.93,0,0,0,0,9.35,5.37,5.37,0,0,0,4.91-.67,5.17,5.17,0,0,0,2-2.75c.23-.79.22-1.26.27-1.25s0,.11,0,.33a3.92,3.92,0,0,1-.11,1,5.13,5.13,0,0,1-2,3,5.72,5.72,0,0,1-5.29.83A5.5,5.5,0,0,1,77.78,343a5.28,5.28,0,0,1,0-6.45,5.62,5.62,0,0,1,2.63-1.89,5.72,5.72,0,0,1,5.29.83,5.16,5.16,0,0,1,2,3,3.92,3.92,0,0,1,.11,1C87.75,339.63,87.74,339.75,87.72,339.75Z" style="fill:#263238"></path><path d="M94.84,340.14a21.35,21.35,0,0,0-.49-2.93,12,12,0,0,0-4.56-6.54,12.42,12.42,0,0,0-5.19-2.2,12.72,12.72,0,0,0-6.45.53,11.63,11.63,0,0,0-3.1,1.62,11.46,11.46,0,0,0-2.59,2.52,11.5,11.5,0,0,0,0,14,11.46,11.46,0,0,0,2.59,2.52,11.93,11.93,0,0,0,3.1,1.62,12.84,12.84,0,0,0,6.45.53,12.55,12.55,0,0,0,5.19-2.2,12,12,0,0,0,4.56-6.55,20.83,20.83,0,0,0,.49-2.93,4.23,4.23,0,0,1,0,.78,5.58,5.58,0,0,1-.07.93,9.09,9.09,0,0,1-.23,1.27A12,12,0,0,1,90,349.9a12.74,12.74,0,0,1-5.33,2.33,13.1,13.1,0,0,1-6.69-.51,11.74,11.74,0,0,1-3.24-1.67,11.93,11.93,0,0,1-2.7-2.61A12.23,12.23,0,0,1,78,328.57a13.1,13.1,0,0,1,6.69-.51A12.61,12.61,0,0,1,90,330.39a12,12,0,0,1,4.54,6.78,8.72,8.72,0,0,1,.23,1.26,5.69,5.69,0,0,1,.07.94A4.08,4.08,0,0,1,94.84,340.14Z" style="fill:#263238"></path><path d="M87.05,331.56c-.19.32-1.31-.05-3-.19a11.82,11.82,0,0,0-6.34,1.12,11.3,11.3,0,0,0-4.5,4.46c-.83,1.46-1.14,2.56-1.52,2.54s-.71-1.23-.19-3.19a9.84,9.84,0,0,1,5-6,10.44,10.44,0,0,1,8-.64C86.39,330.31,87.23,331.3,87.05,331.56Z" style="fill:#fff"></path><path d="M90.18,333.48c-.59.39-1.15.6-1.28.48s.07-.67.46-1.26,1-.85,1.35-.54S90.78,333.09,90.18,333.48Z" style="fill:#fff"></path><g style="opacity:0.30000000000000004"><path d="M70.91,304.16c-.77,0,24,8.23,27.23,10.83l5.07-1.07-17.7-28.37-2-.46S77.4,304.19,70.91,304.16Z" style="fill:#fff"></path></g><path d="M274.8,359.09a6.13,6.13,0,0,1,.79-.07l2.25-.12c2-.08,4.79-.22,8.28-.43,7-.42,16.64-1.21,27.19-2.83A258.92,258.92,0,0,0,340,350c3.37-.9,6.09-1.67,8-2.23l2.16-.61a5.69,5.69,0,0,1,.77-.19,3.49,3.49,0,0,1-.73.28L348,348c-1.85.62-4.56,1.43-7.92,2.38a231.48,231.48,0,0,1-26.73,5.79,268.18,268.18,0,0,1-27.25,2.69c-3.5.16-6.33.25-8.29.27l-2.26,0A4.07,4.07,0,0,1,274.8,359.09Z" style="fill:#263238"></path><path d="M329.32,305.64a2.48,2.48,0,0,1,3,1.06c1.73,3,5,9.52,5.5,16.64.7,9.75,0,27.47,0,27.47s-35.8,8.07-50.6,8.28c0,0,4.58-24.63,8.34-33.94C298.77,317.23,322.35,308.17,329.32,305.64Z" style="fill:#f5f5f5"></path><path d="M329.32,305.64a1.74,1.74,0,0,1-.35.15l-1,.41-4,1.58c-3.47,1.43-8.52,3.49-14.52,6.61a60.39,60.39,0,0,0-9.35,5.85,15.33,15.33,0,0,0-4,4.47,49.68,49.68,0,0,0-2.09,6.07c-1.25,4.25-2.33,8.8-3.4,13.54s-2.08,9.7-3,14.82l-.26-.3a110.25,110.25,0,0,0,12.6-1.18c6.89-1,13.56-2.15,19.91-3.36s12.41-2.47,18-3.71l-.18.21c.27-7.18.39-13.8.33-19.69,0-2.94-.11-5.7-.31-8.24a33.29,33.29,0,0,0-1.36-6.87,47.92,47.92,0,0,0-3.91-9.13,2.47,2.47,0,0,0-2.11-1.35,3.15,3.15,0,0,0-.91.12,1.93,1.93,0,0,1,.92-.19,2.53,2.53,0,0,1,2.23,1.35,46.65,46.65,0,0,1,4,9.12,34.19,34.19,0,0,1,1.43,6.92c.22,2.56.31,5.32.36,8.27.09,5.89,0,12.52-.25,19.71V351l-.18,0c-5.64,1.26-11.69,2.52-18.05,3.75s-13,2.43-19.94,3.38a110.43,110.43,0,0,1-12.66,1.18h-.31l.05-.3q1.47-7.69,3.08-14.83c1.08-4.75,2.17-9.3,3.44-13.56a51.64,51.64,0,0,1,2.14-6.14,15.49,15.49,0,0,1,4.18-4.58,58.85,58.85,0,0,1,9.44-5.84,152.46,152.46,0,0,1,14.61-6.48c1.75-.68,3.11-1.18,4-1.51l1.06-.36Z" style="fill:#263238"></path><path d="M312.52,274.1a8.55,8.55,0,0,1,1,1.15c.6.75,1.46,1.87,2.45,3.29,2,2.83,4.58,6.87,7.24,11.42s4.95,8.74,6.58,11.78l1.91,3.61a8.82,8.82,0,0,1,.64,1.35,8.3,8.3,0,0,1-.82-1.26l-2.06-3.54c-1.71-3-4-7.15-6.7-11.7s-5.17-8.59-7.1-11.46c-.95-1.44-1.75-2.59-2.31-3.38A7.78,7.78,0,0,1,312.52,274.1Z" style="fill:#263238"></path><path d="M275.52,323.52a1.77,1.77,0,0,1,.19-.48c.17-.36.38-.8.64-1.33s.61-1.29,1-2.13l.58-1.33c.18-.49.37-1,.58-1.53.83-2.13,1.63-4.73,2.45-7.64s1.48-6.16,2.09-9.59a126.81,126.81,0,0,0,1.77-17.72c0-1.14,0-2.17,0-3.07s0-1.69,0-2.33,0-1.08,0-1.47a1.65,1.65,0,0,1,0-.51,2.36,2.36,0,0,1,.07.51c0,.39.07.87.12,1.46s.08,1.42.1,2.33.05,1.94,0,3.09a110.65,110.65,0,0,1-1.62,17.8c-.6,3.44-1.34,6.69-2.14,9.62a73.12,73.12,0,0,1-2.57,7.65c-.21.53-.42,1-.62,1.52s-.42.91-.62,1.33c-.38.83-.72,1.54-1.05,2.1l-.73,1.29A2.25,2.25,0,0,1,275.52,323.52Z" style="fill:#263238"></path><g style="opacity:0.30000000000000004"><path d="M341.85,348.23s4.06,9-21.16,14.45a80.83,80.83,0,0,1-45.89-3.59l12.42-.25s50.43-4.76,50.61-9.09c.37-8.69.31-21,.31-21Z"></path></g><ellipse cx="324.01" cy="323.79" rx="8.51" ry="8.23" style="fill:#f5f5f5"></ellipse><path d="M315.5,323.79a1.66,1.66,0,0,1,0-.53,6.16,6.16,0,0,1,.19-1.5,8.12,8.12,0,0,1,3.08-4.65,8.77,8.77,0,0,1,3.65-1.61,9.13,9.13,0,0,1,4.6.34,8.38,8.38,0,0,1,2.22,1.15,8.09,8.09,0,0,1,1.86,1.79,8.19,8.19,0,0,1,0,10,8.13,8.13,0,0,1-1.86,1.8,8.65,8.65,0,0,1-2.22,1.14,9,9,0,0,1-4.6.34,8.89,8.89,0,0,1-3.65-1.6,8.12,8.12,0,0,1-3.08-4.65,6.23,6.23,0,0,1-.19-1.51,1.66,1.66,0,0,1,0-.53,18.7,18.7,0,0,0,.37,2,8.1,8.1,0,0,0,3.1,4.41,8.46,8.46,0,0,0,3.51,1.48,8.61,8.61,0,0,0,4.35-.37,7.59,7.59,0,0,0,2.09-1.09,7.83,7.83,0,0,0,1.75-1.7,7.74,7.74,0,0,0,0-9.44,8.2,8.2,0,0,0-3.83-2.79,8.61,8.61,0,0,0-4.35-.37,8.5,8.5,0,0,0-3.5,1.48,8.12,8.12,0,0,0-3.11,4.42A19.4,19.4,0,0,0,315.5,323.79Z" style="fill:#263238"></path><path d="M324,323.44a8.31,8.31,0,0,0-7.25,4.15,7.8,7.8,0,0,1-1-3.86,8.28,8.28,0,0,1,16.55,0,7.8,7.8,0,0,1-1,3.86A8.31,8.31,0,0,0,324,323.44Z" style="fill:#e0e0e0"></path><path d="M320.35,323.52A3.67,3.67,0,1,0,324,320,3.61,3.61,0,0,0,320.35,323.52Z" style="fill:#fff"></path><path d="M320.35,323.52a1.56,1.56,0,0,1,0-.89,3.54,3.54,0,0,1,1.32-2.07,4,4,0,0,1,3.67-.59,3.73,3.73,0,0,1,0,7.1,3.94,3.94,0,0,1-3.67-.59,3.54,3.54,0,0,1-1.32-2.07,1.56,1.56,0,0,1,0-.89s0,.32.21.84a3.54,3.54,0,0,0,1.35,1.84,3.61,3.61,0,0,0,3.27.44,3.29,3.29,0,0,0,0-6.23,3.58,3.58,0,0,0-3.27.43,3.54,3.54,0,0,0-1.35,1.84C320.4,323.21,320.39,323.52,320.35,323.52Z" style="fill:#263238"></path><path d="M320.8,318c-.18-.27.35-1,1.73-1.59a7.07,7.07,0,0,1,5.67.36,6.68,6.68,0,0,1,3.48,4.36c.3,1.4-.07,2.26-.4,2.27s-.69-.71-1.32-1.63a8.16,8.16,0,0,0-3-2.78,8.57,8.57,0,0,0-4.05-.84C321.79,318.11,321,318.26,320.8,318Z" style="fill:#fff"></path><path d="M307,341.76a12.57,12.57,0,0,0-11,6.27,11.78,11.78,0,0,1-1.55-5.83,12.52,12.52,0,0,1,25,0A11.78,11.78,0,0,1,318,348,12.57,12.57,0,0,0,307,341.76Z" style="fill:#e0e0e0"></path><path d="M301.64,341.81a5.4,5.4,0,1,0,5.39-5.22A5.3,5.3,0,0,0,301.64,341.81Z" style="fill:#fff"></path><path d="M301.64,341.81s0-.12,0-.34a3.81,3.81,0,0,1,.1-1,5.16,5.16,0,0,1,2-3,5.72,5.72,0,0,1,5.29-.83,5.57,5.57,0,0,1,2.63,1.89,5.24,5.24,0,0,1,0,6.45,5.5,5.5,0,0,1-2.63,1.89,5.72,5.72,0,0,1-5.29-.83,5.13,5.13,0,0,1-2-3,3.81,3.81,0,0,1-.1-1q0-.33,0-.33c.05,0,0,.46.27,1.25a5.17,5.17,0,0,0,2,2.75,5.37,5.37,0,0,0,4.91.67,4.92,4.92,0,0,0,0-9.35,5.34,5.34,0,0,0-4.91.68,5.17,5.17,0,0,0-2,2.75C301.68,341.34,301.69,341.81,301.64,341.81Z" style="fill:#263238"></path><path d="M294.52,342.2a4.08,4.08,0,0,1,0-.77,5.77,5.77,0,0,1,.07-.94,7.65,7.65,0,0,1,.24-1.26,12,12,0,0,1,4.53-6.78,12.71,12.71,0,0,1,5.34-2.33,13.1,13.1,0,0,1,6.69.51,11.82,11.82,0,0,1,3.23,1.67,11.52,11.52,0,0,1,2.7,2.61,11.91,11.91,0,0,1,0,14.59,12,12,0,0,1-2.71,2.61,11.68,11.68,0,0,1-3.23,1.67,13.14,13.14,0,0,1-6.7.51,12.85,12.85,0,0,1-5.33-2.33,12,12,0,0,1-4.53-6.78,8.05,8.05,0,0,1-.24-1.26,5.77,5.77,0,0,1-.07-.94,4.23,4.23,0,0,1,0-.78,22.91,22.91,0,0,0,.49,2.93,12.07,12.07,0,0,0,4.57,6.55,12.45,12.45,0,0,0,5.18,2.2,12.84,12.84,0,0,0,6.45-.53,12.14,12.14,0,0,0,3.11-1.62,11.42,11.42,0,0,0,2.58-2.52,11.5,11.5,0,0,0,0-14,11.46,11.46,0,0,0-2.59-2.52,11.63,11.63,0,0,0-3.1-1.62,12.72,12.72,0,0,0-6.45-.53,12.37,12.37,0,0,0-5.18,2.2,12,12,0,0,0-4.57,6.54A23.55,23.55,0,0,0,294.52,342.2Z" style="fill:#263238"></path><path d="M302.31,333.62c-.18-.26.67-1.25,2.63-1.93a10.44,10.44,0,0,1,8,.64,9.89,9.89,0,0,1,5,6c.51,2,.13,3.19-.2,3.19s-.68-1.08-1.52-2.54a11.24,11.24,0,0,0-4.5-4.46,11.8,11.8,0,0,0-6.33-1.12C303.62,333.57,302.51,333.94,302.31,333.62Z" style="fill:#fff"></path><path d="M299.18,335.54c-.59-.39-.86-1-.53-1.32s1,0,1.35.54.59,1.14.47,1.26S299.77,335.93,299.18,335.54Z" style="fill:#fff"></path><g style="opacity:0.30000000000000004"><path d="M318.45,306.22c.77,0-24,8.23-27.23,10.83L286.16,316l17.7-28.37,2-.46S312,306.25,318.45,306.22Z" style="fill:#fff"></path></g><g style="opacity:0.30000000000000004"><path d="M113.85,298.06s3.85-1.27,3.09-4.06a56.73,56.73,0,0,0,26.36,6.11c15.19-.22,70.84,3.07,70.84,3.07l6.38,8.51s-100.61-.39-104.1,1.81Z" style="fill:#fff"></path></g><g style="opacity:0.30000000000000004"><path d="M293.45,405.25V386.49l51.74-5.5s-2.59,15.26-8.54,17.76S293.45,405.25,293.45,405.25Z"></path></g><path d="M342.37,381.29s-2.63,9.71-4.66,12.49c-1.84,2.53-3.74,3.34-9.54,4.43-4.72.88-8.85,1.26-8.85,1.26l1.28-15.86Z" style="fill:#fff"></path><path d="M339.6,390.26a1.69,1.69,0,0,1-.1.48,8.22,8.22,0,0,1-.52,1.31,10.41,10.41,0,0,1-3.44,3.92c-1.85,1.33-4.54,2-7.45,2.48s-6.16.82-9.55,1.26c-6.77.85-12.91,1.59-17.35,2.1l-5.27.58-1.43.13a1.53,1.53,0,0,1-.51,0,3,3,0,0,1,.49-.11l1.42-.22,5.25-.74c4.43-.6,10.56-1.4,17.33-2.25,3.38-.44,6.63-.8,9.54-1.22s5.52-1.07,7.32-2.31A10.67,10.67,0,0,0,338.8,392C339.39,390.91,339.55,390.25,339.6,390.26Z" style="fill:#263238"></path><g style="opacity:0.30000000000000004"><path d="M100,408V389.24l-51.73-5.5s2.58,15.25,8.53,17.75S100,408,100,408Z"></path></g><path d="M51.11,384s2.63,9.71,4.66,12.48c1.84,2.53,3.74,3.35,9.54,4.43,4.71.89,8.85,1.27,8.85,1.27l-1.28-15.87Z" style="fill:#fff"></path><path d="M53.88,393s.21.64.8,1.7a10.74,10.74,0,0,0,3.47,3.72c1.8,1.24,4.42,1.87,7.32,2.31s6.15.78,9.54,1.21c6.77.85,12.9,1.65,17.33,2.25l5.24.74,1.43.23a1.6,1.6,0,0,1,.49.11,2,2,0,0,1-.51,0l-1.43-.14-5.27-.58c-4.45-.51-10.58-1.25-17.35-2.1-3.39-.43-6.61-.8-9.55-1.26s-5.6-1.14-7.45-2.47a10.39,10.39,0,0,1-3.44-3.92,8.61,8.61,0,0,1-.52-1.31A1.75,1.75,0,0,1,53.88,393Z" style="fill:#263238"></path><path d="M129.59,380.46a4.06,4.06,0,0,0-4.17,4.29c.52,6.89,1.89,19.81,4.9,22.17,4.14,3.25,123,6.64,134.23.16,5.12-3,6.5-15,6.87-21.31a3.74,3.74,0,0,0-3.77-3.89Z" style="fill:#455a64"></path><path d="M129.59,380.46a3.49,3.49,0,0,1,.87-.07l2.52-.05,9.71,0,35.72.13,53,.38,31.28.27,4.09,0c.35,0,.65,0,1.05,0a4.52,4.52,0,0,1,1.21.21,4.62,4.62,0,0,1,2.05,1.3,4.28,4.28,0,0,1,1.06,2.15,4.67,4.67,0,0,1,.05,1.17l-.06,1c-.11,1.36-.23,2.71-.39,4.07a54.46,54.46,0,0,1-1.57,8.15,25.47,25.47,0,0,1-1.49,4,11.52,11.52,0,0,1-2.56,3.66,7.23,7.23,0,0,1-2,1.27,15.1,15.1,0,0,1-2.15.66c-1.43.34-2.86.58-4.28.78-2.84.4-5.67.65-8.47.87-5.61.41-11.14.63-16.57.78-10.86.29-21.33.3-31.31.2-20-.23-37.91-.86-53-1.84-3.77-.26-7.35-.53-10.74-.89-1.7-.18-3.34-.38-4.94-.66-.4-.06-.79-.15-1.19-.24a3.26,3.26,0,0,1-2.74-2.35,20,20,0,0,1-1.37-4.06c-.33-1.32-.57-2.6-.79-3.83-.41-2.46-.67-4.72-.88-6.75s-.34-3.84-.44-5.41a4.8,4.8,0,0,1,.19-2.22,4,4,0,0,1,1-1.58,3.9,3.9,0,0,1,2.93-1.16l.21,0s-.29,0-.84.15a4.27,4.27,0,0,0-2.08,1.19,4,4,0,0,0-1,3.56c.15,1.56.34,3.36.58,5.38s.57,4.26,1,6.69c.24,1.21.49,2.47.83,3.76a19.77,19.77,0,0,0,1.38,3.88,4.26,4.26,0,0,0,1.19,1.56,9.67,9.67,0,0,0,2.12.52c1.55.25,3.19.42,4.87.58,3.37.32,6.95.56,10.71.78,15,.84,33,1.36,52.91,1.52,10,.06,20.43,0,31.26-.29,5.41-.16,10.92-.39,16.49-.8,2.78-.21,5.58-.47,8.36-.86,1.39-.2,2.78-.43,4.13-.75a15.54,15.54,0,0,0,1.93-.59,5.66,5.66,0,0,0,1.56-1,10.25,10.25,0,0,0,2.22-3.19,24.29,24.29,0,0,0,1.4-3.77,53.47,53.47,0,0,0,1.52-7.92c.17-1.33.29-2.66.39-4l.07-1a3.73,3.73,0,0,0,0-.83,2.9,2.9,0,0,0-.71-1.42,3.12,3.12,0,0,0-1.35-.87,3.19,3.19,0,0,0-.81-.13c-.29,0-.67,0-1,0l-4.09-.05-31.28-.36-53-.7-35.71-.61-9.71-.24-2.53-.1A3.2,3.2,0,0,1,129.59,380.46Z" style="fill:#263238"></path><path d="M266.78,404.2c0,.14-30.92.25-69.06.25s-69.08-.11-69.08-.25,30.92-.25,69.08-.25S266.78,404.06,266.78,404.2Z" style="fill:#263238"></path><path d="M259.21,407.91c0,.14-26.18.26-58.47.26s-58.47-.12-58.47-.26,26.18-.25,58.47-.25S259.21,407.78,259.21,407.91Z" style="fill:#263238"></path><path d="M269.06,400.14c0,.14-31.44.25-70.21.25s-70.21-.11-70.21-.25,31.43-.25,70.21-.25S269.06,400,269.06,400.14Z" style="fill:#263238"></path><path d="M270.13,396.07c0,.14-31.68.25-70.74.25s-70.75-.11-70.75-.25,31.67-.25,70.75-.25S270.13,395.93,270.13,396.07Z" style="fill:#263238"></path><path d="M270.13,392c0,.14-31.68.25-70.74.25s-70.75-.11-70.75-.25,31.67-.26,70.75-.26S270.13,391.87,270.13,392Z" style="fill:#263238"></path><path d="M271.27,387.94c0,.14-31.93.25-71.31.25s-71.32-.11-71.32-.25,31.93-.25,71.32-.25S271.27,387.8,271.27,387.94Z" style="fill:#263238"></path><path d="M271.27,383.88c0,.13-31.93.25-71.31.25s-71.32-.12-71.32-.25,31.93-.26,71.32-.26S271.27,383.74,271.27,383.88Z" style="fill:#263238"></path><polygon points="180.52 326.46 190.73 333.09 199.66 333.09 209.82 326.46 180.52 326.46" style="fill:#fff"></polygon><path d="M180.26,209.29c.42,0,1.69,7.14,7.66,7s20.52,0,20.52,0v-8.92Z" style="fill:#263238"></path><path d="M215.11,209.29c-.43,0-.08,7.14-6.05,7s-17.2,0-17.2,0l-4.94-8.92Z" style="fill:#263238"></path><path d="M212.46,218.77a2.65,2.65,0,0,1,2.1,1c1.42,1.88,4.27,5.76,4.34,7a2.8,2.8,0,0,1-2.56,3.14c-1.64.19-33.1,0-36.36,0a3.07,3.07,0,0,1-.6-.07c-.86-.21-3.09-.89-2.92-2.36s2.57-5.43,3.85-7.49a2.6,2.6,0,0,1,2.23-1.23Z" style="fill:#263238"></path><rect x="196.56" y="215.69" width="2.14" height="3.72" style="fill:#263238"></rect><path d="M107.77,195.6c0-.69,4.28-6.4,6.62-9.06s3.26-2.57,5.3-2.36c2.53.25,8.58,3.34,8.88,4.52a42.68,42.68,0,0,1,.49,5l-4.08-.1s.91-3.62-.3-4.34c-1.78-1.07-2.45-1.37-3.87-.78s-3.26,5.31-3.26,5.31Z" style="fill:#e0e0e0"></path><path d="M284.42,195.72c0,.13-40,.25-89.24.25s-89.25-.12-89.25-.25,39.95-.26,89.25-.26S284.42,195.58,284.42,195.72Z" style="fill:#263238"></path><g style="opacity:0.30000000000000004"><path d="M209.28,249.14c0-3-1.06-11.43-3.62-13.68-2-1.74-6.64-2.26-8.94-2.4h-.22c-1.22,0-9.38.26-11.82,2.41s-3.62,10.7-3.62,13.68v.09a3.24,3.24,0,0,0,3.1,3.36h22a3.24,3.24,0,0,0,3.1-3.36Z"></path></g><g style="opacity:0.30000000000000004"><path d="M263.92,249.14c0-3-1.06-11.43-3.61-13.68-2-1.74-6.64-2.26-8.95-2.4h-.22c-1.22,0-9.38.26-11.82,2.41s-3.62,10.7-3.62,13.68v.09a3.24,3.24,0,0,0,3.11,3.36h22a3.24,3.24,0,0,0,3.1-3.36Z"></path></g><g style="opacity:0.30000000000000004"><path d="M149.94,249.14c0-3-1.06-11.43-3.62-13.68-2-1.74-6.64-2.26-8.94-2.4h-.22c-1.22,0-9.38.26-11.82,2.41s-3.62,10.7-3.62,13.68v.09a3.24,3.24,0,0,0,3.1,3.36h22a3.24,3.24,0,0,0,3.1-3.36Z"></path></g><path d="M157.06,248.6c0-4.49-1.6-17.2-5.44-20.59-3-2.61-10-3.39-13.46-3.61h-.33c-1.84,0-14.11.38-17.79,3.62-3.84,3.39-5.44,16.1-5.44,20.59v.14a4.87,4.87,0,0,0,4.67,5h33.12a4.87,4.87,0,0,0,4.67-5Z" style="fill:#263238"></path><path d="M98,275.08s1.73-12,4.7-15.73c5.23-6.54,33.15-4.19,33.15-4.19s26.65-1.7,30.49,2.66,6.11,16.81,6.11,16.81Z" style="fill:#263238"></path><path d="M276.14,247.4c0-4.49-1.6-17.2-5.45-20.59-3-2.61-10-3.39-13.46-3.61h-.32c-1.84,0-14.12.38-17.8,3.62-3.84,3.39-5.44,16.1-5.44,20.59v.14a4.87,4.87,0,0,0,4.67,5.05h33.13a4.88,4.88,0,0,0,4.67-5.05Z" style="fill:#263238"></path><path d="M218,273.19s1.74-11.9,4.71-15.58c5.23-6.48,33.14-4.15,33.14-4.15s26.66-1.69,30.49,2.63,6.11,16.66,6.11,16.66Z" style="fill:#263238"></path><g style="opacity:0.30000000000000004"><path d="M102.85,216.2c-5,7.72-17.63,40-17.63,40s44,1.79,45.53-1.79S155.19,212,155.19,212,106.54,210.52,102.85,216.2Z" style="fill:#fff"></path></g><path d="M348.85,360.9s-.16.22-.49.64a5.7,5.7,0,0,1-.66.76,9.37,9.37,0,0,1-1,.95,24.82,24.82,0,0,1-8,4.43,65.35,65.35,0,0,1-14.12,3.17c-2.8.35-5.81.59-9,.71s-6.59,0-10.14.06l-111,.08c-43.34,0-82.57,0-111-.13-3.56-.06-6.93-.06-10.14-.16a85.73,85.73,0,0,1-9-1.11,84.31,84.31,0,0,1-14-3.62,35.49,35.49,0,0,1-8.2-4,14.34,14.34,0,0,1-1.88-1.46l-.6-.55.64.51a14.74,14.74,0,0,0,1.9,1.41,36.34,36.34,0,0,0,8.21,3.92,86.17,86.17,0,0,0,14,3.52,83.19,83.19,0,0,0,9,1.07c3.18.09,6.57.07,10.12.12l111,0,111,.07c3.55,0,6.94.06,10.13,0s6.19-.34,9-.67a65.57,65.57,0,0,0,14.08-3.07,25.39,25.39,0,0,0,8-4.32,10.58,10.58,0,0,0,1-.93,6.79,6.79,0,0,0,.67-.73C348.66,361.1,348.85,360.9,348.85,360.9Z" style="fill:#263238"></path></g></svg>