<?xml version="1.0" standalone="no"?>
<!DOCTYPE svg PUBLIC "-//W3C//DTD SVG 20010904//EN"
 "http://www.w3.org/TR/2001/REC-SVG-20010904/DTD/svg10.dtd">
<svg version="1.0" xmlns="http://www.w3.org/2000/svg"
 width="1571.000000pt" height="1571.000000pt" viewBox="0 0 1571.000000 1571.000000"
 preserveAspectRatio="xMidYMid meet">
<metadata>
Created by potrace 1.14, written by Peter Selinger 2001-2017
</metadata>
<g transform="translate(0.000000,1571.000000) scale(0.100000,-0.100000)"
fill="#000000" stroke="none">
<path d="M4004 11096 c-45 -14 -119 -63 -146 -95 -10 -12 -30 -45 -45 -74 -25
-45 -28 -63 -27 -137 1 -105 23 -160 92 -229 99 -99 245 -120 372 -56 234 120
228 453 -11 575 -53 28 -175 36 -235 16z"/>
<path d="M2731 10728 c-101 -18 -170 -96 -178 -202 -5 -53 -2 -72 16 -110 85
-174 333 -168 407 9 67 161 -72 334 -245 303z"/>
<path d="M2048 10305 c-2 -1 -34 -5 -73 -8 -38 -4 -90 -12 -115 -18 -25 -6
-52 -12 -61 -14 -82 -17 -220 -123 -282 -217 -57 -87 -94 -205 -96 -314 l-1
-31 -102 -6 c-57 -3 -114 -8 -127 -11 -122 -28 -209 -87 -273 -186 -25 -39
-33 -60 -56 -140 -2 -8 -6 -59 -9 -112 l-5 -98 28 -1 c16 -1 94 0 174 1 548 7
682 9 698 14 9 3 42 8 72 11 30 3 66 8 80 10 14 2 54 7 90 11 36 3 72 7 80 9
8 2 43 6 77 10 35 4 73 8 85 10 13 1 50 6 83 10 33 4 67 9 76 10 9 2 52 6 95
10 43 4 81 9 84 10 3 2 34 6 69 10 34 4 70 8 79 10 9 1 46 6 82 10 36 4 74 9
85 11 11 2 49 7 85 10 36 3 72 7 80 9 8 2 42 7 75 11 33 3 67 8 75 9 8 2 44 6
80 9 36 4 76 9 90 11 14 2 49 7 79 11 30 3 113 25 185 48 153 49 164 60 192
183 73 331 -93 549 -441 580 -108 9 -241 -42 -324 -125 -52 -53 -97 -138 -112
-215 -5 -29 -12 -61 -14 -73 -5 -21 -10 -21 -157 -20 -144 1 -151 2 -153 21
-26 262 -187 464 -410 514 -46 10 -161 21 -167 16z"/>
<path d="M952 10127 c-128 -47 -186 -210 -115 -325 73 -119 226 -147 335 -61
105 83 108 258 7 343 -64 54 -151 70 -227 43z"/>
<path d="M11261 10128 c-50 -14 -80 -37 -102 -79 -60 -119 24 -249 153 -237
80 8 137 63 145 142 13 110 -91 201 -196 174z"/>
<path d="M12402 10094 c-91 -45 -144 -128 -145 -228 -1 -153 116 -271 265
-265 196 7 312 201 226 378 -28 57 -59 87 -123 117 -71 33 -154 33 -223 -2z"/>
<path d="M4142 10086 c-19 -6 -54 -31 -78 -55 -146 -142 -43 -385 162 -383 63
0 110 19 152 62 94 94 95 228 3 320 -66 66 -156 87 -239 56z"/>
<path d="M10704 10031 c-143 -65 -143 -277 0 -342 146 -66 306 66 264 219 -22
82 -99 142 -183 142 -22 0 -59 -9 -81 -19z"/>
<path d="M7097 9894 c-1 -1 -92 -5 -202 -9 -233 -8 -279 -10 -400 -20 -49 -3
-117 -8 -150 -11 -33 -2 -78 -6 -100 -9 -22 -2 -65 -7 -95 -9 -92 -9 -163 -16
-200 -21 -19 -2 -57 -7 -85 -10 -51 -6 -70 -8 -160 -20 -53 -7 -399 -60 -450
-69 -305 -53 -513 -96 -790 -161 -38 -9 -81 -19 -94 -21 -14 -3 -28 -7 -33
-10 -5 -3 -20 -8 -35 -10 -114 -21 -673 -189 -673 -203 0 -4 62 -22 138 -40
150 -36 338 -81 362 -86 8 -2 53 -12 100 -23 47 -12 101 -24 120 -28 19 -4 40
-9 45 -10 6 -1 73 -17 150 -34 77 -17 149 -34 160 -36 11 -3 40 -9 65 -14 25
-5 54 -11 65 -14 91 -20 603 -119 700 -135 96 -17 119 -21 140 -25 11 -2 45
-7 75 -12 30 -4 57 -8 60 -9 3 0 27 -4 53 -9 27 -4 57 -9 66 -11 10 -2 42 -6
71 -10 29 -4 61 -8 70 -10 9 -2 41 -6 71 -10 30 -3 61 -8 69 -10 8 -2 44 -7
80 -10 36 -4 72 -8 80 -10 8 -2 47 -6 85 -10 39 -4 78 -9 88 -11 9 -1 54 -6
100 -9 45 -4 98 -8 117 -10 170 -16 469 -24 476 -13 3 4 -7 9 -23 9 -15 1 -37
3 -48 4 -69 9 -123 17 -145 20 -14 3 -43 7 -65 10 -69 10 -95 16 -93 23 1 4
-2 14 -5 22 -5 13 -38 173 -52 255 -2 17 -7 41 -10 55 -3 14 -21 113 -41 220
-20 107 -37 197 -39 200 -2 3 -6 22 -9 42 -6 41 -7 40 69 53 108 18 205 32
280 40 33 4 67 8 75 10 8 2 51 7 95 10 44 3 94 8 110 10 188 24 775 24 1040 0
170 -15 184 -17 370 -41 22 -3 105 -16 185 -29 680 -114 1366 -340 2000 -659
166 -83 167 -85 101 -164 -22 -26 -53 -74 -69 -107 -33 -66 -75 -195 -67 -203
3 -3 29 0 57 6 321 69 488 106 567 124 76 17 100 19 129 10 20 -6 36 -10 36
-9 8 34 32 44 185 81 88 22 161 42 161 45 0 3 -10 11 -23 17 -12 6 -123 63
-247 126 -124 62 -252 126 -285 140 -33 15 -91 41 -130 59 -91 41 -390 163
-480 195 -96 35 -418 146 -430 148 -10 2 -190 57 -250 76 -28 8 -80 22 -300
80 -75 19 -410 95 -465 105 -14 2 -50 9 -80 15 -72 14 -264 47 -315 55 -22 3
-67 10 -100 15 -33 5 -80 12 -105 15 -25 3 -56 8 -70 10 -14 2 -50 7 -80 10
-59 6 -113 13 -170 20 -19 2 -69 7 -110 10 -41 3 -91 8 -110 10 -32 4 -93 9
-290 20 -233 14 -883 27 -893 19z m-577 -308 c0 -2 4 -25 9 -52 5 -27 12 -69
16 -94 3 -25 8 -52 10 -60 2 -8 7 -31 10 -50 3 -19 22 -123 41 -230 46 -256
50 -290 33 -289 -30 1 -329 61 -404 81 -22 5 -47 11 -55 13 -8 2 -44 11 -80
20 -61 16 -73 19 -117 29 -50 11 -255 74 -383 117 -191 64 -259 92 -287 119
-44 42 -22 109 46 137 71 30 477 145 591 168 247 49 359 69 460 81 30 3 57 8
59 10 5 5 51 5 51 0z"/>
<path d="M11704 9720 c-75 -21 -108 -38 -165 -89 l-46 -40 -34 35 c-116 120
-290 114 -418 -14 -69 -69 -84 -143 -50 -248 8 -26 22 -37 72 -59 57 -26 236
-108 417 -192 41 -20 104 -49 140 -65 36 -17 171 -78 300 -138 211 -96 260
-116 309 -126 8 -2 44 -10 80 -18 37 -9 77 -18 91 -20 69 -13 340 -67 375 -76
33 -8 342 -69 435 -86 14 -2 57 -11 95 -20 39 -8 79 -16 90 -18 11 -2 97 -21
190 -41 94 -20 178 -38 187 -40 73 -15 302 -80 337 -96 24 -10 45 -19 46 -19
5 0 24 54 40 112 20 71 27 186 14 252 -22 119 -98 217 -213 276 l-63 31 -2 62
c-7 211 -107 402 -262 499 -115 73 -254 111 -404 110 -111 0 -168 -11 -265
-49 -160 -63 -290 -191 -370 -362 l-34 -72 -140 3 -140 3 -4 40 c-10 125 -75
276 -150 349 -111 110 -305 159 -458 116z"/>
<path d="M3238 9245 c-2 -2 -59 -6 -128 -9 -69 -4 -138 -8 -155 -10 -16 -2
-66 -6 -110 -10 -44 -4 -91 -9 -105 -11 -14 -2 -54 -7 -90 -10 -36 -4 -72 -9
-81 -10 -9 -2 -40 -6 -70 -10 -30 -3 -76 -10 -104 -15 -27 -5 -68 -12 -90 -15
-22 -3 -47 -7 -55 -10 -8 -2 -31 -6 -50 -9 -163 -25 -588 -134 -710 -183 -8
-3 -19 -7 -25 -8 -11 -3 -109 -41 -140 -54 -11 -5 -45 -19 -75 -31 -87 -35
-285 -137 -384 -197 -149 -90 -274 -189 -401 -317 -235 -236 -374 -486 -436
-784 -22 -102 -34 -337 -19 -347 5 -3 8 3 8 12 -1 10 2 35 5 55 104 604 627
1043 1557 1306 218 61 431 108 665 146 17 3 44 7 60 10 153 25 416 55 610 71
138 11 182 14 330 21 269 12 410 8 520 -16 55 -12 109 -24 120 -26 125 -25
175 -34 205 -39 19 -4 53 -10 75 -15 22 -5 57 -11 77 -14 21 -3 57 -10 80 -15
24 -5 63 -12 88 -16 25 -3 52 -8 60 -10 8 -2 35 -7 60 -10 25 -4 81 -13 125
-20 44 -8 100 -16 125 -20 25 -3 70 -10 100 -15 30 -5 75 -12 100 -15 25 -3
56 -8 70 -10 14 -2 49 -7 79 -10 30 -4 61 -8 70 -10 9 -1 41 -6 71 -10 30 -3
66 -8 80 -10 28 -4 105 -13 168 -20 23 -3 61 -7 85 -10 23 -3 65 -7 92 -10 28
-3 66 -8 85 -10 19 -2 67 -7 105 -10 39 -4 81 -8 95 -10 14 -2 61 -7 105 -10
44 -3 96 -8 115 -10 19 -2 73 -7 120 -10 47 -3 103 -8 125 -10 74 -7 294 -22
470 -30 66 -4 147 -8 180 -10 305 -20 1526 -28 1855 -12 85 4 205 10 265 12
61 3 137 7 170 9 171 13 271 20 278 18 5 -2 6 1 3 6 -2 4 -42 5 -88 1 -84 -8
-758 -4 -878 5 -36 2 -128 7 -205 11 -77 3 -156 8 -175 10 -19 2 -84 7 -144
10 -60 4 -116 8 -125 10 -9 1 -65 6 -126 10 -60 4 -117 9 -127 10 -9 2 -52 6
-95 10 -43 3 -94 7 -113 10 -19 2 -69 7 -110 11 -41 3 -82 7 -90 9 -8 2 -49 6
-90 10 -41 4 -82 9 -91 10 -8 2 -48 6 -88 10 -40 3 -80 8 -89 10 -9 1 -48 6
-85 10 -37 3 -76 8 -85 10 -9 1 -44 6 -77 9 -57 7 -80 10 -157 20 -18 3 -55 8
-83 11 -27 3 -61 8 -75 10 -14 3 -47 7 -75 11 -54 6 -96 12 -135 19 -14 2 -47
7 -75 10 -27 3 -61 7 -75 10 -14 2 -43 7 -65 10 -67 9 -234 35 -335 51 -52 8
-106 17 -120 19 -14 2 -122 20 -240 40 -118 20 -228 38 -245 41 -16 2 -54 9
-84 15 -30 6 -64 12 -75 14 -56 8 -124 21 -401 76 -165 33 -307 62 -315 64 -8
2 -35 8 -60 14 -25 5 -56 12 -70 14 -14 3 -107 26 -207 51 -198 50 -365 106
-393 131 -14 13 -40 16 -139 14 -66 -1 -122 -3 -123 -4z"/>
<path d="M100 9052 c-15 -5 -13 -145 3 -164 6 -8 34 -30 60 -47 70 -47 102
-101 101 -170 0 -64 -23 -114 -90 -203 -52 -67 -126 -211 -148 -288 -9 -30
-19 -86 -22 -125 l-5 -70 33 75 c119 265 398 527 758 712 147 76 252 120 420
177 118 40 120 42 120 67 0 17 -7 25 -26 30 -26 7 -1185 12 -1204 6z"/>
<path d="M14583 8864 c-83 -35 -115 -151 -63 -226 90 -133 298 -54 277 104
-13 101 -120 162 -214 122z"/>
<path d="M12010 8659 c-69 -15 -140 -30 -157 -33 -18 -3 -54 -11 -80 -17 -27
-6 -57 -12 -68 -15 -11 -2 -85 -18 -165 -35 -80 -17 -156 -33 -170 -35 -20 -4
-169 -36 -225 -49 -15 -3 -88 -17 -108 -21 -10 -2 -26 -5 -35 -8 -9 -3 -28 -7
-42 -10 -14 -2 -46 -9 -73 -15 -26 -6 -64 -14 -85 -17 -81 -13 -38 -15 158 -8
356 13 883 8 1160 -11 156 -10 291 -22 365 -30 22 -3 65 -7 95 -10 139 -13
370 -47 635 -92 34 -5 259 -52 290 -59 11 -3 31 -7 45 -10 14 -3 88 -21 165
-40 77 -20 147 -37 155 -39 8 -2 84 -24 168 -49 623 -188 1196 -461 1580 -754
68 -51 82 -59 77 -40 -11 35 -54 118 -88 168 -48 72 -215 230 -312 295 -50 33
-91 63 -93 68 -2 4 -7 7 -11 7 -5 0 -48 23 -97 51 -260 150 -631 299 -1082
434 -120 36 -228 67 -238 70 -10 2 -46 11 -79 20 -134 36 -326 83 -545 131
-19 4 -37 8 -40 9 -3 1 -25 5 -50 10 -25 5 -47 9 -50 10 -5 2 -73 15 -100 20
-8 2 -49 10 -90 19 -114 23 -378 70 -455 81 -22 3 -62 10 -90 15 -109 19 -140
18 -265 -11z"/>
<path d="M2745 8309 c-323 -48 -703 -270 -970 -569 l-30 -34 30 19 c310 198
599 307 874 333 100 9 359 9 441 -1 287 -35 657 -168 873 -314 20 -14 39 -24
42 -21 7 6 -190 206 -269 272 -254 213 -532 323 -817 324 -63 0 -141 -4 -174
-9z"/>
<path d="M12277 8144 c-1 -1 -33 -4 -72 -7 -38 -3 -95 -11 -125 -17 -30 -6
-66 -14 -79 -16 -50 -10 -219 -78 -301 -122 -148 -78 -310 -202 -433 -331 -64
-68 -75 -87 -32 -57 21 14 177 94 235 119 158 71 345 127 509 153 18 3 41 7
51 9 122 24 494 23 605 0 11 -2 36 -7 55 -9 204 -29 462 -112 663 -212 38 -19
66 -30 62 -24 -16 26 -322 270 -339 270 -3 0 -22 12 -43 26 -141 97 -421 197
-591 210 -72 6 -162 10 -165 8z"/>
<path d="M5179 7856 c-3 -3 -56 -8 -119 -11 -96 -6 -140 -14 -265 -52 -82 -25
-159 -47 -170 -50 -106 -26 -251 -147 -256 -212 -7 -91 -3 -1490 4 -1506 35
-71 135 -117 254 -116 107 0 144 9 206 48 75 47 72 9 72 845 l0 747 27 16 c38
22 61 26 140 26 98 -1 154 -9 228 -32 195 -60 324 -166 344 -279 7 -43 -39
-125 -92 -163 -85 -62 -272 -147 -389 -177 -46 -12 -84 -53 -78 -86 2 -10 4
-22 4 -26 1 -4 27 -16 58 -28 78 -29 134 -23 308 35 318 107 578 226 670 308
60 53 96 128 88 182 -8 52 -54 132 -102 180 -66 65 -121 99 -246 151 -60 25
-119 49 -130 54 -90 39 -544 158 -556 146z"/>
<path d="M9453 7804 c-144 -24 -262 -77 -332 -147 -37 -37 -108 -148 -383
-590 -40 -65 -80 -129 -88 -142 -8 -13 -39 -64 -69 -112 -30 -48 -68 -110 -86
-138 -18 -27 -64 -101 -103 -163 l-70 -113 0 -79 c0 -69 4 -85 27 -122 54 -84
172 -162 339 -222 40 -14 82 -28 95 -30 12 -3 50 -12 85 -20 166 -41 442 -32
577 19 135 50 292 141 448 259 101 76 108 84 100 129 -7 43 -35 68 -100 87
l-43 13 -97 -65 c-55 -37 -144 -84 -203 -108 -98 -40 -112 -43 -209 -45 -146
-3 -270 26 -388 93 -101 56 -152 141 -136 224 3 18 66 125 140 238 74 113 207
315 295 450 88 135 168 249 177 255 41 25 82 33 116 22 19 -6 35 -14 35 -18 0
-4 15 -40 34 -81 19 -40 82 -181 141 -313 59 -132 119 -265 132 -295 14 -30
42 -93 63 -140 21 -47 54 -120 74 -163 20 -43 36 -80 36 -82 0 -2 17 -41 39
-87 21 -45 62 -136 91 -200 59 -131 94 -174 178 -215 41 -20 69 -26 120 -27
160 -1 257 43 286 128 14 42 14 44 -39 161 -35 77 -78 175 -222 500 -85 193
-163 368 -173 390 -10 22 -37 83 -60 135 -23 52 -57 127 -74 165 -18 39 -43
96 -56 127 -54 131 -241 304 -339 313 -14 2 -54 8 -89 14 -74 14 -170 12 -269
-5z"/>
<path d="M6730 7789 c-54 -25 -87 -54 -107 -93 -14 -26 -15 -118 -15 -715 0
-378 3 -704 6 -726 3 -22 20 -69 38 -104 49 -96 162 -178 303 -218 50 -15 220
-20 771 -23 216 -1 223 -1 284 24 35 14 72 33 82 43 21 18 23 63 7 127 -9 36
-18 47 -57 68 l-47 25 -395 -2 c-258 -1 -404 1 -420 8 -58 25 -55 -23 -55 730
l-1 692 -33 65 c-19 36 -39 68 -45 73 -26 17 -113 37 -189 41 -69 5 -89 2
-127 -15z"/>
<path d="M3058 7785 c-2 -2 -36 -5 -76 -6 -40 -1 -98 -6 -130 -11 -31 -4 -73
-11 -92 -13 -61 -9 -181 -46 -295 -90 -103 -40 -141 -57 -305 -133 -81 -37
-133 -92 -154 -163 -33 -111 -10 -197 73 -270 120 -106 393 -273 661 -406 204
-100 259 -136 320 -209 75 -90 105 -183 80 -245 -27 -65 -153 -120 -284 -123
-102 -3 -246 38 -365 103 -52 28 -95 51 -97 51 -1 0 -31 13 -66 29 -35 16
-121 53 -193 81 l-129 53 -67 -10 c-107 -17 -189 -85 -189 -158 0 -89 369
-315 555 -340 106 -15 165 -18 280 -18 174 2 237 8 385 38 161 33 134 26 296
79 217 71 314 112 352 148 54 53 102 147 102 202 0 135 -75 260 -205 343 -38
25 -86 56 -105 68 -60 40 -170 105 -176 105 -3 0 -18 8 -32 19 -39 27 -120 70
-365 193 -119 60 -231 121 -247 135 -39 32 -68 91 -63 128 20 146 273 250 433
178 25 -12 144 -60 264 -108 206 -82 222 -87 275 -82 31 3 70 9 86 12 17 4 35
8 40 9 47 9 95 71 95 121 0 30 -38 97 -69 123 -20 16 -83 49 -96 51 -5 1 -53
15 -105 31 -84 26 -151 43 -215 56 -11 2 -40 8 -65 13 -58 13 -108 20 -112 16z"/>
<path d="M12367 7574 c-1 -1 -36 -4 -77 -8 -41 -3 -87 -8 -102 -11 -16 -3 -38
-7 -50 -9 -94 -16 -272 -77 -423 -144 -189 -83 -242 -112 -272 -150 -33 -41
-57 -82 -48 -82 3 0 0 -10 -6 -22 -28 -52 1 -179 54 -236 40 -44 309 -225 417
-283 25 -13 52 -29 60 -35 22 -17 171 -93 270 -138 221 -100 335 -226 346
-381 2 -35 -2 -45 -40 -81 -49 -46 -124 -74 -229 -84 -89 -8 -258 28 -327 71
-63 39 -231 117 -360 169 -56 22 -117 48 -134 57 -62 32 -183 10 -246 -45 -80
-68 -82 -123 -8 -184 23 -18 46 -38 52 -43 41 -40 231 -149 306 -177 121 -45
189 -53 435 -53 136 0 233 5 275 14 36 7 76 15 90 18 143 25 462 125 585 183
63 30 107 75 145 148 53 102 24 240 -77 361 -58 70 -375 262 -720 437 -273
139 -289 148 -321 183 -70 76 -63 147 22 225 52 48 162 86 251 86 46 0 209
-58 410 -145 180 -78 196 -81 325 -58 106 18 165 104 124 184 -32 63 -82 96
-213 138 -115 37 -226 66 -291 76 -14 3 -44 9 -67 15 -33 8 -147 11 -156 4z"/>
<path d="M13836 7573 c-65 -17 -136 -89 -155 -158 -26 -96 2 -175 91 -261 29
-28 70 -70 90 -94 l38 -43 22 29 c12 16 55 63 95 104 82 86 103 127 103 203 0
149 -139 257 -284 220z m102 -137 c24 -8 52 -53 52 -85 0 -72 -79 -117 -143
-82 -62 33 -51 145 17 170 22 9 42 8 74 -3z"/>
<path d="M14744 7564 c-38 -16 -79 -68 -90 -114 -4 -19 -9 -163 -10 -320 -1
-157 -2 -287 -3 -290 -1 -7 -548 -6 -555 0 -3 3 -6 40 -7 82 -2 78 -17 125
-52 163 -19 20 -19 20 -67 -32 l-48 -53 -1 -152 -1 -153 454 -1 c251 0 459 -3
463 -7 4 -4 7 -127 7 -272 1 -258 2 -265 21 -265 43 1 99 44 125 95 l25 50 0
565 c0 525 -2 568 -19 613 -25 66 -78 101 -155 103 -31 1 -70 -4 -87 -12z"/>
<path d="M13766 7081 c-44 -49 -47 -85 -46 -676 2 -600 1 -598 53 -653 32 -35
66 -49 118 -51 87 -2 157 48 179 127 5 21 10 179 10 362 1 179 4 330 8 337 5
7 88 10 282 9 l274 -1 1 -120 c1 -66 5 -131 9 -145 14 -42 55 -89 93 -105 66
-28 63 -41 62 245 -1 234 -3 260 -18 261 -9 0 -216 1 -460 2 l-444 2 1 162 1
162 -49 51 c-26 27 -50 50 -53 50 -2 0 -12 -9 -21 -19z"/>
<path d="M14780 6058 c-51 -14 -86 -43 -109 -91 -64 -131 32 -278 172 -262 55
6 82 20 121 62 39 42 53 127 30 183 -37 88 -124 132 -214 108z m108 -124 c67
-75 -42 -181 -113 -109 -42 41 -32 108 19 131 38 16 64 10 94 -22z"/>
<path d="M6687 5452 c-15 -3 -17 -27 -17 -233 l0 -229 60 0 c58 0 60 1 60 27
l0 26 23 -20 c59 -55 162 -48 218 13 38 43 48 76 44 143 -5 102 -68 163 -167
163 -38 -1 -58 -7 -84 -27 l-34 -26 0 80 c0 45 -3 81 -7 82 -33 3 -83 3 -96 1z
m253 -232 c22 -25 21 -94 -2 -117 -9 -8 -34 -17 -56 -20 -34 -5 -44 -1 -66 20
-41 42 -32 117 17 137 33 14 86 4 107 -20z"/>
<path d="M7163 5452 l-23 -3 0 -230 0 -229 60 0 60 0 -2 231 -3 232 -35 1
c-19 1 -45 0 -57 -2z"/>
<path d="M9815 5419 c-56 -27 -75 -55 -75 -111 0 -63 35 -97 128 -128 66 -21
112 -49 112 -70 0 -16 -31 -40 -51 -40 -29 0 -59 18 -59 35 0 15 -6 16 -92 17
-30 1 -33 -1 -31 -28 3 -42 63 -91 122 -101 141 -23 231 25 231 124 0 61 -41
102 -132 132 -82 27 -112 49 -102 74 15 40 72 38 100 -2 9 -12 26 -16 64 -15
28 1 54 5 57 8 13 13 -13 60 -48 88 -31 25 -47 30 -110 33 -59 3 -82 0 -114
-16z"/>
<path d="M4690 5210 l0 -220 60 0 60 0 0 133 0 132 18 -40 c10 -22 34 -82 53
-133 l34 -93 53 3 54 3 45 123 c25 67 49 122 52 122 4 0 6 -55 6 -122 l0 -123
58 -3 c31 -2 57 1 58 5 1 10 1 404 0 421 -1 10 -20 12 -73 10 l-71 -3 -49
-115 c-61 -144 -79 -183 -83 -178 -1 2 -17 37 -34 78 -18 41 -47 108 -64 147
l-32 73 -72 0 -73 0 0 -220z"/>
<path d="M7973 5228 c-45 -112 -85 -211 -89 -221 -6 -16 -1 -18 56 -15 62 3
63 3 75 38 l12 35 95 3 95 3 13 -41 13 -40 64 0 c34 0 63 2 63 4 0 1 -40 99
-88 217 l-89 214 -69 3 -69 3 -82 -203z m207 -68 c0 -4 -25 -6 -55 -7 -63 0
-64 2 -36 73 11 27 22 58 26 69 5 16 13 4 36 -55 16 -41 29 -77 29 -80z"/>
<path d="M8918 5419 c-5 -3 -9 -15 -8 -25 5 -44 0 -54 -26 -54 -24 0 -25 -2
-22 -47 3 -43 5 -48 26 -45 18 3 22 -2 23 -25 4 -199 18 -221 136 -231 l63 -5
0 47 c0 44 -1 46 -29 46 -41 0 -49 16 -48 95 l2 70 38 0 37 0 0 47 0 48 -41 0
c-32 0 -40 3 -38 18 6 63 2 69 -52 68 -28 -1 -55 -4 -61 -7z"/>
<path d="M5454 5337 c-180 -29 -211 -262 -44 -334 55 -23 137 -21 193 6 56 27
84 64 95 123 26 135 -88 231 -244 205z m101 -112 c52 -51 19 -145 -51 -145
-47 0 -76 28 -79 78 -6 80 75 123 130 67z"/>
<path d="M6325 5340 c-78 -12 -120 -52 -137 -132 -22 -103 26 -192 117 -217
52 -14 118 1 144 33 19 23 29 20 23 -9 -4 -24 -3 -25 57 -25 l61 0 0 175 0
175 -60 0 -60 0 0 -31 0 -30 -22 24 c-29 32 -72 45 -123 37z m127 -120 c44
-54 4 -140 -64 -140 -54 1 -82 30 -82 85 -1 38 4 50 24 65 33 25 98 20 122
-10z"/>
<path d="M7475 5339 c-96 -17 -160 -92 -154 -181 6 -83 44 -133 122 -159 99
-33 204 0 246 78 18 35 14 38 -49 38 -46 0 -62 -4 -73 -18 -19 -27 -80 -30
-106 -6 -12 11 -21 28 -21 37 0 15 14 17 136 17 l136 0 -5 42 c-12 108 -112
173 -232 152z m78 -90 c15 -6 27 -15 27 -19 0 -5 3 -15 6 -24 5 -14 -5 -16
-70 -16 -82 0 -91 7 -56 45 23 24 54 29 93 14z"/>
<path d="M9301 5338 c-82 -14 -151 -93 -151 -172 0 -51 33 -116 73 -143 99
-68 259 -38 309 58 55 107 -13 242 -130 256 -20 2 -41 5 -47 7 -5 1 -30 -1
-54 -6z m106 -110 c34 -32 32 -99 -3 -127 -37 -29 -79 -27 -111 5 -22 22 -24
31 -19 67 11 72 83 102 133 55z"/>
<path d="M10392 5340 c-23 -4 -56 -16 -72 -28 l-30 -23 0 26 c0 24 -2 25 -60
25 l-60 0 0 -260 0 -260 60 0 60 0 0 112 0 111 23 -20 c12 -11 36 -25 52 -30
26 -8 42 -9 103 -1 30 3 92 70 103 111 37 136 -53 255 -179 237z m42 -109 c36
-30 23 -128 -19 -145 -34 -13 -73 -5 -100 20 -24 22 -27 31 -22 67 7 54 34 76
87 73 22 -2 46 -8 54 -15z"/>
<path d="M10762 5340 c-164 -25 -193 -271 -41 -340 58 -25 137 -14 168 24 17
20 31 12 24 -14 -5 -18 0 -20 56 -20 l61 0 0 175 0 175 -61 0 -61 0 4 -30 5
-30 -21 19 c-34 32 -86 48 -134 41z m107 -105 c75 -38 43 -155 -42 -155 -45 0
-76 27 -82 68 -10 82 52 125 124 87z"/>
<path d="M5732 5331 c2 -5 32 -83 68 -175 l65 -166 78 0 c67 0 77 2 77 18 0
10 4 22 8 28 5 5 21 43 37 84 27 74 43 114 71 178 8 18 14 35 14 37 0 3 -29 5
-64 5 l-64 0 -39 -121 -40 -120 -15 33 c-8 18 -28 72 -44 121 l-29 87 -63 0
c-35 0 -62 -4 -60 -9z"/>
<path d="M8417 5333 c-2 -5 -3 -60 -2 -123 1 -87 6 -124 19 -152 21 -44 72
-71 133 -70 42 1 103 27 103 44 0 4 5 8 11 8 7 0 9 -10 7 -25 -5 -24 -4 -25
56 -25 l61 0 0 173 0 172 -58 3 c-41 2 -57 -1 -58 -10 0 -7 -1 -53 -1 -103 0
-49 -5 -100 -10 -111 -13 -28 -45 -42 -82 -37 -50 7 -61 28 -63 122 -1 47 -2
98 -2 114 -1 26 -3 27 -55 27 -30 0 -57 -3 -59 -7z"/>
</g>
</svg>
